<?xml version="1.0" encoding="iso-8859-1"?>
<!-- Generator: Adobe Illustrator 19.0.0, SVG Export Plug-In . SVG Version: 6.00 Build 0)  -->
<svg version="1.1" id="Capa_1" xmlns="http://www.w3.org/2000/svg" xmlns:xlink="http://www.w3.org/1999/xlink" x="0px" y="0px"
	 viewBox="0 0 56.48 56.48" style="enable-background:new 0 0 56.48 56.48;" xml:space="preserve">
<g>
	<g>
		<path d="M55.026,9.939H1.454C0.65,9.939,0,10.59,0,11.393v33.695c0,0.803,0.65,1.454,1.454,1.454h53.572
			c0.804,0,1.454-0.651,1.454-1.454V11.393C56.48,10.59,55.83,9.939,55.026,9.939z M21.74,36.747h-0.021
			c0,0.185-0.012,0.367-0.035,0.545c-0.011,0.087-0.025,0.171-0.042,0.255c-0.012,0.065-0.026,0.129-0.041,0.192
			c-0.012,0.053-0.026,0.104-0.041,0.158c-0.013,0.046-0.026,0.092-0.041,0.137c-0.013,0.041-0.027,0.082-0.041,0.123
			c-0.014,0.037-0.027,0.074-0.041,0.11c-0.013,0.035-0.027,0.07-0.042,0.104c-0.013,0.032-0.027,0.062-0.041,0.096
			c-0.013,0.03-0.027,0.061-0.041,0.09c-0.014,0.028-0.027,0.056-0.041,0.084c-0.013,0.026-0.027,0.054-0.041,0.08
			c-0.014,0.025-0.027,0.051-0.041,0.076c-0.013,0.024-0.027,0.049-0.041,0.072c-0.013,0.023-0.027,0.047-0.041,0.069
			c-0.014,0.021-0.027,0.044-0.041,0.065c-0.014,0.021-0.027,0.043-0.042,0.064c-0.013,0.021-0.027,0.041-0.041,0.062
			c-0.013,0.019-0.027,0.039-0.041,0.059c-0.013,0.019-0.027,0.037-0.041,0.057c-0.014,0.02-0.027,0.038-0.041,0.057
			c-0.014,0.018-0.027,0.035-0.041,0.053c-0.014,0.017-0.027,0.035-0.041,0.052c-0.014,0.017-0.027,0.034-0.041,0.05
			c-0.013,0.018-0.027,0.033-0.041,0.049c-0.014,0.017-0.027,0.032-0.041,0.047c-0.014,0.017-0.027,0.031-0.041,0.047
			c-0.014,0.016-0.027,0.029-0.042,0.045c-0.013,0.015-0.027,0.029-0.041,0.043c-0.014,0.014-0.027,0.027-0.042,0.042
			c-0.013,0.013-0.027,0.026-0.041,0.04c-0.014,0.014-0.027,0.027-0.041,0.041c-0.014,0.014-0.027,0.025-0.041,0.039
			c-0.014,0.013-0.027,0.025-0.041,0.039c-0.014,0.012-0.027,0.023-0.041,0.037c-0.014,0.012-0.027,0.023-0.041,0.035
			c-0.014,0.012-0.027,0.023-0.041,0.035c-0.014,0.012-0.027,0.023-0.041,0.034c-0.014,0.012-0.027,0.022-0.041,0.034
			c-0.013,0.011-0.027,0.021-0.041,0.033c-0.014,0.01-0.027,0.021-0.042,0.031c-0.014,0.01-0.027,0.021-0.041,0.03
			c-0.013,0.01-0.027,0.021-0.041,0.03c-0.013,0.01-0.027,0.02-0.041,0.029c-0.014,0.01-0.027,0.02-0.041,0.028
			c-0.014,0.009-0.027,0.019-0.041,0.028c-0.014,0.009-0.028,0.018-0.042,0.027c-0.013,0.008-0.026,0.018-0.041,0.025
			c-0.014,0.008-0.027,0.018-0.041,0.025c-0.013,0.009-0.027,0.018-0.041,0.025c-0.014,0.008-0.027,0.018-0.041,0.025
			c-0.014,0.008-0.027,0.016-0.042,0.023c-0.013,0.008-0.027,0.017-0.041,0.023c-0.014,0.007-0.027,0.016-0.041,0.021
			c-0.013,0.009-0.027,0.017-0.041,0.023l-0.041,0.021c-0.014,0.007-0.027,0.014-0.041,0.021c-0.014,0.007-0.027,0.013-0.042,0.021
			c-0.013,0.007-0.027,0.014-0.041,0.02c-0.014,0.007-0.027,0.014-0.041,0.02c-0.014,0.007-0.027,0.014-0.041,0.02
			c-0.014,0.006-0.027,0.012-0.042,0.018l-0.041,0.019l-0.041,0.019c-0.013,0.004-0.027,0.01-0.041,0.017
			c-0.014,0.006-0.027,0.011-0.041,0.017c-0.014,0.006-0.027,0.01-0.042,0.016c-0.013,0.004-0.027,0.011-0.041,0.016
			c-0.014,0.005-0.027,0.009-0.042,0.015l-0.041,0.015l-0.041,0.015c-0.014,0.004-0.027,0.009-0.041,0.013
			c-0.014,0.004-0.027,0.01-0.041,0.014c-0.013,0.004-0.028,0.008-0.041,0.013l-0.042,0.012l-0.041,0.011
			c-0.014,0.004-0.027,0.008-0.042,0.012c-0.013,0.004-0.027,0.007-0.041,0.011c-0.014,0.003-0.028,0.007-0.041,0.01
			c-0.014,0.003-0.027,0.007-0.041,0.011l-0.041,0.01l-0.042,0.009c-0.013,0.003-0.027,0.006-0.041,0.009
			c-0.014,0.003-0.027,0.005-0.041,0.008c-0.013,0.004-0.027,0.006-0.041,0.008l-0.042,0.008c-0.014,0.002-0.027,0.004-0.041,0.007
			c-0.014,0.002-0.027,0.004-0.041,0.007c-0.013,0.002-0.027,0.003-0.041,0.006l-0.041,0.005c-0.014,0.003-0.027,0.005-0.041,0.007
			c-0.014,0-0.027,0.002-0.042,0.004c-0.013,0.002-0.027,0.004-0.041,0.004c-0.014,0.002-0.027,0.002-0.041,0.005l-0.041,0.004
			c-0.014,0.001-0.027,0.002-0.041,0.003c-0.014,0.001-0.027,0.001-0.041,0.002l-0.041,0.003l-0.041,0.002
			c-0.013,0-0.027,0-0.041,0.001c-0.014,0-0.027,0.001-0.041,0.001c-0.014,0-0.028,0-0.042,0h-0.041c-0.012,0-0.025,0-0.038,0
			h-0.003h-0.041h-0.041H17.34H17.3h-0.041h-0.041h-0.041h-0.042h-0.041h-0.041h-0.041h-0.041H16.93h-0.04h-0.041h-0.041h-0.041
			h-0.042h-0.041h-0.042h-0.041H16.56h-0.042H16.48h-0.041h-0.041h-0.041h-0.041h-0.041h-0.041h-0.042h-0.041H16.11h-0.041H16.03
			h-0.041h-0.042h-0.041h-0.041h-0.041h-0.041h-0.042H15.7h-0.04h-0.04h-0.041h-0.041h-0.042h-0.041h-0.041h-0.041h-0.041h-0.041
			H15.25h-0.04h-0.041h-0.042h-0.041h-0.042h-0.041h-0.041h-0.041H14.88h-0.041H14.8h-0.04h-0.042h-0.041h-0.041h-0.042h-0.041
			h-0.042H14.47h-0.041h-0.041h-0.042h-0.041h-0.041h-0.041h-0.041h-0.041h-0.042h-0.041h-0.041h-0.041H13.94h-0.042h-0.041h-0.041
			h-0.041h-0.042h-0.041h-0.041H13.61h-0.041H13.53h-0.042h-0.041h-0.041h-0.041h-0.041h-0.042h-0.041H13.2h-0.041H13.12h-0.041
			h-0.042h-0.041h-0.041h-0.041h-0.042h-0.041H12.79h-0.041h-0.041h-0.042h-0.041h-0.042h-0.041h-0.041H12.46h-0.041h-0.041h-0.042
			h-0.041H12.26h-0.041h-0.041h-0.041h-0.041h-0.042h-0.041h-0.041h-0.041h-0.042H11.85h-0.041h-0.041h-0.041h-0.041h-0.042h-0.041
			h-0.041h-0.041H11.48h-0.04h-0.041h-0.041h-0.041h-0.088v-8.962c0,0,0.03,0.008,0.088,0.022l0.041,0.011l0.041,0.01l0.041,0.011
			l0.042,0.01l0.041,0.01l0.041,0.009l0.041,0.009l0.041,0.01l0.042,0.008l0.041,0.01l0.041,0.008l0.041,0.009l0.041,0.009
			l0.041,0.008l0.042,0.009l0.041,0.009l0.041,0.008l0.041,0.008l0.042,0.008l0.041,0.008l0.041,0.008l0.041,0.007l0.041,0.009
			l0.042,0.006l0.041,0.008l0.042,0.007l0.041,0.007l0.041,0.007l0.041,0.007l0.041,0.008l0.041,0.006l0.042,0.007l0.041,0.006
			l0.042,0.006l0.041,0.007l0.041,0.006l0.041,0.006l0.041,0.007l0.042,0.006l0.041,0.005l0.041,0.006l0.041,0.006l0.042,0.006
			l0.041,0.004l0.041,0.006l0.041,0.006l0.041,0.005l0.041,0.005l0.042,0.005l0.041,0.005l0.041,0.006l0.041,0.004l0.041,0.006
			l0.042,0.005l0.041,0.004l0.041,0.004l0.041,0.004l0.041,0.004l0.041,0.005l0.042,0.004l0.041,0.004l0.041,0.004l0.041,0.004
			l0.042,0.004l0.041,0.004l0.041,0.003l0.041,0.003l0.041,0.003l0.042,0.003l0.041,0.003l0.041,0.005l0.041,0.002l0.041,0.002
			l0.041,0.004l0.042,0.002l0.041,0.002l0.041,0.002l0.041,0.004l0.042,0.002l0.041,0.002l0.042,0.002l0.041,0.002l0.041,0.002
			l0.042,0.002l0.041,0.002l0.041,0.002l0.041,0.001l0.041,0.001l0.041,0.001l0.041,0.001l0.041,0.001l0.042,0.001l0.041,0.001
			h0.042l0.041,0.001h0.041l0.041,0.002h0.041h0.041h0.041h0.041h0.041h0.042h0.041h0.016h0.025h0.041h0.041h0.041h0.042h0.041
			h0.041l0.041-0.002l0.041-0.001l0.042-0.001l0.041-0.001l0.041-0.001l0.041-0.001l0.041-0.001l0.041-0.002l0.042-0.002
			l0.041-0.002l0.041-0.001l0.041-0.002l0.041-0.002l0.041-0.002l0.041-0.002l0.041-0.003l0.042-0.004l0.041-0.002l0.041-0.002
			l0.042-0.004l0.041-0.002l0.042-0.004l0.041-0.004l0.041-0.004l0.041-0.003l0.041-0.005l0.041-0.004l0.041-0.004l0.041-0.006
			l0.041-0.004l0.041-0.006l0.042-0.005l0.041-0.006l0.041-0.005l0.041-0.006c0.014-0.001,0.027-0.004,0.041-0.006l0.042-0.006
			l0.041-0.006l0.041-0.008c0.013-0.001,0.027-0.004,0.041-0.007l0.041-0.006c0.014-0.002,0.028-0.004,0.042-0.007
			c0.014-0.004,0.026-0.006,0.041-0.008l0.041-0.008l0.041-0.008l0.041-0.008c0.014-0.002,0.027-0.005,0.041-0.009l0.041-0.009
			l0.041-0.008c0.014-0.002,0.027-0.006,0.041-0.009l0.041-0.009c0.014-0.003,0.028-0.006,0.042-0.009s0.027-0.007,0.041-0.011
			l0.041-0.01c0.013-0.004,0.027-0.007,0.041-0.011c0.014-0.003,0.027-0.007,0.041-0.011l0.041-0.012
			c0.014-0.004,0.027-0.006,0.042-0.011c0.013-0.004,0.027-0.007,0.041-0.011l0.041-0.012c0.014-0.004,0.027-0.008,0.041-0.012
			l0.042-0.013l0.041-0.013c0.013-0.004,0.027-0.008,0.041-0.014l0.041-0.014l0.041-0.014c0.014-0.006,0.028-0.01,0.042-0.014
			c0.014-0.006,0.027-0.011,0.041-0.016l0.042-0.015c0.013-0.005,0.027-0.011,0.041-0.015c0.014-0.006,0.027-0.012,0.041-0.017
			c0.014-0.005,0.027-0.01,0.041-0.017l0.041-0.017l0.041-0.017c0.014-0.006,0.028-0.012,0.042-0.018
			c0.014-0.006,0.027-0.013,0.041-0.019l0.042-0.019l0.041-0.02c0.013-0.006,0.027-0.013,0.041-0.02
			c0.014-0.006,0.028-0.014,0.041-0.02c0.014-0.007,0.028-0.014,0.041-0.021c0.014-0.006,0.027-0.014,0.042-0.021
			c0.013-0.007,0.027-0.015,0.041-0.022c0.014-0.006,0.028-0.015,0.041-0.021c0.014-0.008,0.028-0.016,0.041-0.023
			c0.015-0.008,0.028-0.016,0.042-0.023c0.014-0.008,0.027-0.016,0.041-0.023c0.014-0.009,0.027-0.018,0.041-0.025
			c0.013-0.01,0.028-0.018,0.041-0.026c0.014-0.009,0.027-0.019,0.041-0.026c0.014-0.01,0.028-0.019,0.041-0.027
			c0.014-0.01,0.027-0.02,0.042-0.029c0.013-0.009,0.027-0.02,0.041-0.029c0.014-0.01,0.028-0.021,0.041-0.031
			c0.014-0.01,0.028-0.021,0.041-0.03c0.014-0.011,0.027-0.022,0.041-0.033c0.015-0.012,0.028-0.022,0.042-0.034
			c0.013-0.012,0.027-0.022,0.041-0.035c0.014-0.013,0.027-0.023,0.041-0.037c0.013-0.014,0.028-0.025,0.041-0.039
			c0.015-0.012,0.028-0.025,0.041-0.041c0.014-0.012,0.028-0.026,0.041-0.041c0.014-0.014,0.027-0.027,0.042-0.043
			c0.014-0.014,0.027-0.029,0.041-0.045s0.028-0.031,0.041-0.047c0.014-0.017,0.028-0.033,0.041-0.05
			c0.014-0.018,0.027-0.034,0.041-0.052c0.014-0.018,0.027-0.037,0.041-0.055c0.014-0.02,0.027-0.039,0.041-0.059
			c0.014-0.021,0.028-0.041,0.041-0.062c0.014-0.022,0.027-0.043,0.041-0.066c0.014-0.022,0.027-0.046,0.041-0.069
			c0.014-0.025,0.027-0.051,0.041-0.075c0.014-0.027,0.028-0.054,0.042-0.082c0.014-0.03,0.027-0.06,0.041-0.091
			c0.015-0.031,0.028-0.064,0.042-0.098c0.014-0.037,0.027-0.072,0.041-0.109c0.015-0.043,0.028-0.084,0.041-0.127
			c0.015-0.051,0.029-0.102,0.041-0.152c0.016-0.062,0.029-0.127,0.041-0.191c0.017-0.098,0.031-0.195,0.041-0.295
			c0.014-0.138,0.02-0.279,0.02-0.423V24.15h-0.02h-0.041h-0.041H20.7h-0.041h-0.041h-0.042h-0.041h-0.042h-0.041h-0.041H20.37
			h-0.041h-0.041H20.25h-0.041h-0.041h-0.041h-0.041h-0.042h-0.041h-0.041h-0.041H19.88h-0.041h-0.042h-0.041h-0.041h-0.041h-0.041
			h-0.042H19.55h-0.041h-0.041H19.43h-0.041h-0.042h-0.041h-0.041h-0.041h-0.042h-0.041H19.1h-0.041h-0.041h-0.042h-0.041h-0.042
			h-0.041h-0.041H18.77h-0.041h-0.041h-0.042h-0.041H18.57h-0.041h-0.041h-0.041h-0.041h-0.042h-0.041h-0.041h-0.041h-0.042H18.16
			h-0.041h-0.041h-0.041h-0.041h-0.042h-0.041h-0.041h-0.041H17.79h-0.04h-0.041h-0.041h-0.041h-0.041h-0.042h-0.041h-0.041h-0.041
			H17.38h-0.04H17.3h-0.041h-0.041h-0.031v4.935c0,0.077-0.003,0.153-0.009,0.228c-0.008,0.096-0.022,0.188-0.042,0.278
			c-0.011,0.056-0.025,0.11-0.041,0.164c-0.012,0.043-0.026,0.085-0.041,0.125c-0.013,0.036-0.026,0.07-0.041,0.104
			c-0.013,0.029-0.027,0.061-0.041,0.09c-0.013,0.027-0.027,0.054-0.041,0.08c-0.013,0.023-0.027,0.047-0.041,0.07
			c-0.013,0.022-0.027,0.045-0.041,0.065c-0.013,0.021-0.027,0.04-0.041,0.06c-0.014,0.019-0.027,0.037-0.041,0.055
			c-0.014,0.017-0.027,0.033-0.042,0.051c-0.013,0.016-0.027,0.032-0.041,0.047c-0.014,0.016-0.028,0.03-0.042,0.044
			c-0.013,0.015-0.027,0.028-0.041,0.042c-0.014,0.014-0.027,0.026-0.041,0.04c-0.014,0.013-0.027,0.024-0.042,0.036
			c-0.013,0.012-0.027,0.023-0.041,0.035c-0.014,0.012-0.027,0.021-0.041,0.031c-0.014,0.011-0.027,0.021-0.041,0.031
			c-0.014,0.01-0.027,0.021-0.041,0.029c-0.014,0.009-0.027,0.02-0.041,0.028c-0.014,0.009-0.027,0.018-0.041,0.026
			c-0.013,0.008-0.027,0.017-0.041,0.023c-0.014,0.008-0.027,0.016-0.042,0.023c-0.013,0.008-0.027,0.015-0.041,0.022
			c-0.013,0.007-0.027,0.015-0.041,0.021c-0.013,0.008-0.027,0.015-0.041,0.021c-0.014,0.006-0.027,0.013-0.041,0.019
			c-0.014,0.006-0.027,0.013-0.041,0.019c-0.014,0.005-0.027,0.011-0.042,0.017c-0.013,0.006-0.027,0.012-0.041,0.016
			c-0.014,0.006-0.027,0.011-0.041,0.016s-0.027,0.009-0.041,0.014c-0.014,0.004-0.027,0.01-0.041,0.014
			c-0.014,0.004-0.027,0.008-0.042,0.013c-0.013,0.004-0.027,0.008-0.041,0.011c-0.014,0.004-0.027,0.008-0.041,0.012
			c-0.013,0.002-0.027,0.007-0.041,0.011c-0.014,0.003-0.027,0.006-0.041,0.009c-0.014,0.003-0.027,0.006-0.041,0.009
			c-0.014,0.003-0.027,0.007-0.042,0.009c-0.013,0.002-0.027,0.004-0.041,0.006c-0.014,0.002-0.027,0.004-0.041,0.008l-0.041,0.006
			c-0.014,0.002-0.027,0.004-0.041,0.005c-0.014,0.002-0.027,0.004-0.041,0.005l-0.041,0.004c-0.014,0.002-0.027,0.004-0.041,0.004
			c-0.014,0.002-0.027,0.004-0.041,0.004c-0.014,0-0.027,0.002-0.042,0.002c-0.013,0.002-0.027,0.002-0.041,0.002
			c-0.014,0-0.027,0.002-0.042,0.002c-0.013,0.002-0.027,0.002-0.041,0.002h-0.041c-0.014,0-0.027,0-0.041,0h-0.016h-0.025h-0.041
			H14.79h-0.041l-0.042-0.002h-0.041l-0.041-0.002l-0.042-0.002l-0.041-0.002L14.5,31.172l-0.041-0.002l-0.041-0.004l-0.041-0.003
			l-0.042-0.003l-0.041-0.003l-0.041-0.004l-0.041-0.004l-0.041-0.005L14.13,31.14l-0.042-0.006l-0.041-0.004l-0.041-0.007
			l-0.041-0.005L13.94,31.12l-0.042-0.006l-0.041-0.007l-0.041-0.008l-0.041-0.006l-0.042-0.008l-0.041-0.007l-0.041-0.008
			l-0.041-0.008l-0.041-0.009l-0.041-0.008l-0.042-0.008l-0.041-0.009l-0.041-0.009l-0.041-0.01l-0.041-0.01l-0.042-0.01
			l-0.041-0.01l-0.041-0.012l-0.041-0.01l-0.041-0.011l-0.041-0.01l-0.042-0.011l-0.041-0.013l-0.041-0.011l-0.041-0.012
			l-0.042-0.012l-0.041-0.012l-0.041-0.012l-0.041-0.012l-0.041-0.014l-0.042-0.013l-0.041-0.015l-0.042-0.013l-0.041-0.013
			l-0.041-0.016l-0.041-0.014l-0.041-0.014l-0.041-0.016l-0.042-0.014l-0.041-0.015l-0.042-0.017l-0.041-0.015l-0.041-0.016
			l-0.041-0.015l-0.041-0.017l-0.042-0.017l-0.041-0.017l-0.041-0.017l-0.041-0.018l-0.042-0.017L11.837,30.5l-0.041-0.018
			l-0.041-0.018l-0.041-0.018l-0.041-0.019l-0.042-0.017l-0.041-0.02l-0.041-0.018l-0.041-0.02l-0.041-0.02l-0.027-0.014
			l-0.041-0.019l-0.041-0.021l-0.041-0.019c-0.03-0.015-0.059-0.028-0.088-0.042V19.736c0-0.296,0.03-0.585,0.088-0.865
			c0.012-0.06,0.026-0.119,0.041-0.178c0.012-0.051,0.027-0.101,0.041-0.151c0.013-0.044,0.026-0.088,0.041-0.132
			c0.014-0.04,0.027-0.08,0.042-0.12c0.014-0.037,0.026-0.073,0.041-0.109c0.013-0.034,0.027-0.067,0.041-0.101
			c0.013-0.031,0.027-0.063,0.041-0.093c0.014-0.03,0.027-0.059,0.041-0.088c0.014-0.028,0.027-0.056,0.042-0.083
			c0.013-0.026,0.027-0.053,0.041-0.079c0.013-0.025,0.027-0.05,0.041-0.075c0.013-0.023,0.027-0.048,0.041-0.072
			c0.014-0.023,0.027-0.046,0.041-0.069c0.014-0.021,0.027-0.044,0.041-0.065s0.027-0.042,0.042-0.063
			c0.013-0.02,0.027-0.041,0.041-0.061c0.014-0.02,0.027-0.04,0.041-0.059c0.014-0.019,0.027-0.037,0.041-0.056
			c0.014-0.019,0.027-0.037,0.042-0.055c0.013-0.018,0.027-0.036,0.041-0.053c0.013-0.017,0.027-0.034,0.041-0.051
			c0.013-0.017,0.027-0.034,0.041-0.05c0.014-0.016,0.027-0.032,0.041-0.048c0.014-0.016,0.027-0.031,0.042-0.047
			c0.013-0.015,0.027-0.031,0.041-0.045c0.014-0.014,0.027-0.029,0.042-0.044c0.013-0.014,0.027-0.029,0.041-0.043
			c0.014-0.014,0.027-0.028,0.041-0.042c0.014-0.014,0.027-0.027,0.041-0.041c0.014-0.014,0.027-0.027,0.041-0.041
			c0.013-0.013,0.027-0.025,0.041-0.038c0.014-0.013,0.027-0.025,0.042-0.038c0.013-0.012,0.027-0.024,0.041-0.036
			c0.014-0.012,0.027-0.024,0.042-0.035c0.013-0.012,0.027-0.024,0.041-0.035c0.014-0.012,0.028-0.023,0.041-0.035
			c0.014-0.011,0.027-0.022,0.041-0.033c0.014-0.011,0.027-0.022,0.041-0.033c0.014-0.01,0.027-0.021,0.042-0.031
			c0.013-0.01,0.027-0.021,0.041-0.031l0.041-0.03c0.013-0.01,0.027-0.02,0.041-0.029c0.014-0.01,0.027-0.02,0.042-0.029
			c0.013-0.009,0.027-0.019,0.041-0.028c0.014-0.009,0.027-0.019,0.041-0.027c0.013-0.009,0.027-0.018,0.041-0.026
			s0.027-0.017,0.041-0.025c0.014-0.009,0.027-0.017,0.041-0.025c0.014-0.008,0.027-0.016,0.042-0.024
			c0.013-0.008,0.027-0.016,0.041-0.024c0.014-0.007,0.027-0.015,0.041-0.022c0.013-0.007,0.027-0.016,0.041-0.023
			c0.014-0.007,0.027-0.015,0.041-0.022c0.014-0.007,0.027-0.014,0.042-0.021c0.013-0.007,0.027-0.014,0.041-0.021l0.041-0.021
			c0.013-0.006,0.027-0.013,0.041-0.02c0.014-0.007,0.027-0.013,0.041-0.02c0.014-0.006,0.027-0.013,0.041-0.019
			c0.014-0.006,0.027-0.012,0.042-0.018c0.013-0.006,0.027-0.012,0.041-0.019c0.014-0.005,0.027-0.011,0.041-0.017l0.041-0.017
			l0.027-0.014l0.041-0.016c0.014-0.005,0.027-0.01,0.041-0.015c0.013-0.005,0.027-0.01,0.041-0.014
			c0.014-0.005,0.027-0.01,0.041-0.015l0.042-0.014l0.041-0.014c0.014-0.004,0.027-0.009,0.041-0.013
			c0.013-0.004,0.027-0.008,0.041-0.013c0.014-0.003,0.027-0.008,0.041-0.012c0.014-0.004,0.027-0.007,0.041-0.012l0.042-0.011
			c0.013-0.003,0.027-0.007,0.041-0.01s0.027-0.007,0.041-0.01c0.014-0.003,0.027-0.007,0.041-0.01
			c0.014-0.003,0.027-0.006,0.042-0.009l0.041-0.009c0.014-0.003,0.028-0.006,0.042-0.009c0.013-0.002,0.027-0.005,0.041-0.008
			c0.014-0.002,0.027-0.005,0.041-0.008s0.027-0.004,0.042-0.007l0.041-0.007c0.014-0.002,0.027-0.005,0.041-0.007
			c0.013-0.001,0.028-0.003,0.041-0.005c0.014-0.002,0.027-0.004,0.041-0.006l0.041-0.005l0.041-0.005
			c0.013-0.001,0.027-0.003,0.041-0.004c0.014-0.001,0.028-0.003,0.042-0.003l0.041-0.004c0.014-0.001,0.027-0.002,0.042-0.003
			c0.013-0.001,0.027-0.002,0.041-0.003c0.014,0,0.027-0.002,0.041-0.002c0.014-0.001,0.027-0.001,0.041-0.002l0.041-0.001
			c0.014,0,0.027-0.001,0.041-0.002c0.014,0,0.027,0,0.041,0c0.014,0,0.027,0,0.041,0h0.019h0.022h0.042h0.041h0.041h0.041h0.041
			h0.041h0.042h0.041h0.041h0.041h0.041H16h0.041h0.041h0.041h0.041h0.041h0.042h0.041h0.041h0.041h0.041h0.041h0.041h0.041h0.042
			h0.041h0.041H16.7h0.041h0.042h0.041h0.041h0.041h0.041h0.041h0.041h0.041h0.041h0.041h0.042h0.041h0.041h0.041h0.023h0.042h0.041
			h0.041h0.041h0.041h0.042h0.041h0.041h0.041h0.041h0.041h0.041h0.041h0.041h0.041h0.042h0.041h0.041h0.041h0.041h0.041h0.042
			h0.041h0.041h0.041h0.042h0.041h0.041h0.041h0.041h0.042h0.041H18.7h0.041h0.041h0.041h0.041h0.041h0.042h0.041h0.042h0.041h0.041
			h0.041h0.041h0.042h0.041h0.041h0.041h0.042h0.041h0.041h0.041h0.041h0.041h0.042h0.041h0.041h0.041h0.041h0.042h0.041h0.041
			h0.041h0.041h0.041h0.042h0.041h0.041h0.041h0.041h0.041h0.041h0.041h0.041h0.041h0.041h0.042h0.041h0.042h0.041h0.041h0.041H20.8
			h0.041h0.041h0.041h0.041h0.041h0.041h0.042h0.041h0.041h0.041h0.041h0.041h0.041h0.041h0.041h0.042h0.041h0.041h0.041h0.041
			h0.041h0.042h0.035V36.747z M33.486,36.747h-0.001v-0.001c0,0.185-0.013,0.367-0.035,0.545c-0.011,0.087-0.024,0.171-0.041,0.255
			c-0.013,0.064-0.026,0.129-0.042,0.191c-0.014,0.053-0.025,0.105-0.041,0.158c-0.013,0.046-0.027,0.092-0.041,0.137
			c-0.013,0.041-0.027,0.082-0.041,0.122c-0.014,0.038-0.027,0.075-0.041,0.112c-0.014,0.035-0.027,0.068-0.042,0.103
			c-0.013,0.032-0.026,0.063-0.041,0.097c-0.013,0.029-0.026,0.06-0.041,0.088c-0.013,0.028-0.026,0.057-0.041,0.084
			c-0.013,0.027-0.026,0.055-0.041,0.08c-0.014,0.026-0.026,0.051-0.042,0.076c-0.013,0.024-0.025,0.049-0.041,0.073
			c-0.013,0.024-0.025,0.046-0.041,0.069c-0.013,0.021-0.027,0.044-0.041,0.066c-0.013,0.021-0.027,0.043-0.041,0.063
			c-0.014,0.02-0.027,0.042-0.041,0.062c-0.014,0.021-0.027,0.039-0.042,0.06c-0.013,0.019-0.026,0.038-0.041,0.057
			c-0.013,0.019-0.026,0.038-0.04,0.056c-0.015,0.019-0.027,0.035-0.041,0.054c-0.015,0.017-0.027,0.034-0.041,0.051
			c-0.015,0.017-0.027,0.034-0.041,0.051c-0.015,0.017-0.027,0.033-0.041,0.05c-0.014,0.016-0.027,0.03-0.041,0.047
			c-0.015,0.016-0.027,0.03-0.041,0.045c-0.015,0.016-0.027,0.029-0.041,0.045c-0.015,0.015-0.027,0.029-0.043,0.043
			c-0.013,0.014-0.027,0.027-0.041,0.041c-0.013,0.015-0.027,0.027-0.041,0.041c-0.013,0.014-0.027,0.027-0.041,0.041
			c-0.014,0.014-0.026,0.025-0.041,0.039c-0.014,0.013-0.027,0.024-0.041,0.037c-0.014,0.014-0.027,0.024-0.041,0.037
			c-0.014,0.012-0.027,0.024-0.041,0.036c-0.015,0.013-0.027,0.023-0.041,0.034c-0.015,0.012-0.027,0.023-0.043,0.035
			c-0.013,0.011-0.026,0.021-0.041,0.033c-0.014,0.011-0.026,0.021-0.041,0.033c-0.013,0.011-0.026,0.021-0.041,0.031
			s-0.027,0.021-0.041,0.031c-0.015,0.01-0.027,0.02-0.041,0.029c-0.015,0.011-0.027,0.021-0.041,0.029
			c-0.014,0.01-0.027,0.02-0.041,0.028c-0.015,0.011-0.027,0.021-0.043,0.029c-0.013,0.009-0.026,0.018-0.041,0.026
			c-0.014,0.01-0.026,0.019-0.041,0.026c-0.014,0.009-0.027,0.019-0.041,0.026c-0.015,0.009-0.027,0.018-0.041,0.024
			c-0.014,0.009-0.027,0.017-0.041,0.025c-0.015,0.008-0.027,0.017-0.041,0.024c-0.014,0.006-0.027,0.015-0.041,0.022l-0.041,0.022
			l-0.041,0.022l-0.041,0.021c-0.014,0.008-0.028,0.016-0.041,0.022c-0.014,0.007-0.028,0.013-0.043,0.021
			c-0.014,0.007-0.026,0.015-0.041,0.021c-0.012,0.007-0.026,0.013-0.041,0.021c-0.014,0.006-0.026,0.013-0.041,0.019
			c-0.014,0.007-0.027,0.013-0.041,0.019l-0.041,0.019l-0.041,0.017l-0.041,0.018c-0.014,0.006-0.027,0.011-0.041,0.017
			c-0.014,0.005-0.027,0.011-0.041,0.015c-0.014,0.006-0.027,0.012-0.042,0.017c-0.013,0.005-0.027,0.009-0.041,0.015l-0.041,0.014
			l-0.041,0.016c-0.015,0.004-0.027,0.009-0.041,0.013c-0.015,0.005-0.028,0.009-0.042,0.013c-0.014,0.004-0.027,0.009-0.041,0.014
			l-0.041,0.012l-0.041,0.012c-0.014,0.004-0.027,0.006-0.041,0.01c-0.016,0.005-0.027,0.008-0.042,0.012
			c-0.013,0.003-0.027,0.007-0.041,0.01c-0.015,0.003-0.026,0.008-0.041,0.01l-0.041,0.01l-0.041,0.01
			c-0.015,0.003-0.026,0.006-0.042,0.009c-0.014,0.003-0.027,0.005-0.041,0.008l-0.041,0.009l-0.041,0.006
			c-0.014,0.002-0.027,0.005-0.041,0.008c-0.014,0.002-0.027,0.004-0.041,0.007c-0.014,0.002-0.027,0.003-0.042,0.006l-0.041,0.005
			c-0.015,0.002-0.026,0.004-0.041,0.006c-0.015,0.002-0.026,0.002-0.041,0.004c-0.015,0.002-0.026,0.004-0.042,0.006
			c-0.014,0-0.027,0.002-0.041,0.004l-0.042,0.004c-0.013,0.001-0.026,0.002-0.041,0.003s-0.026,0.001-0.041,0.002l-0.041,0.003
			l-0.041,0.002c-0.014,0-0.028,0-0.041,0.001c-0.014,0-0.026,0.001-0.041,0.001C29.318,41,29.306,41,29.291,41H29.25
			c-0.013,0-0.024,0-0.038,0h-0.003h-0.041h-0.041h-0.04h-0.043h-0.041H28.96h-0.041h-0.041h-0.041H28.82h-0.041h-0.041h-0.041
			h-0.042h-0.041h-0.041h-0.042H28.49h-0.04h-0.04h-0.041h-0.041h-0.041h-0.041h-0.041h-0.041h-0.041h-0.041h-0.041H28h-0.041
			h-0.041h-0.041h-0.042h-0.041h-0.041h-0.041H27.67h-0.041H27.59h-0.04h-0.041h-0.041h-0.042h-0.041h-0.041h-0.041h-0.041h-0.041
			H27.18h-0.041h-0.041h-0.042h-0.041h-0.041h-0.041h-0.041H26.85h-0.041h-0.041H26.73h-0.041h-0.041h-0.041h-0.041h-0.041h-0.041
			h-0.042h-0.041H26.36h-0.04h-0.041h-0.041h-0.041h-0.041h-0.041h-0.041h-0.041h-0.041h-0.041H25.91h-0.041h-0.042h-0.041h-0.041
			h-0.041h-0.042h-0.041H25.58h-0.041h-0.041H25.46h-0.042h-0.041h-0.041h-0.041h-0.041h-0.042h-0.041H25.13h-0.041H25.05h-0.041
			h-0.041h-0.041h-0.041h-0.041h-0.042h-0.041h-0.041H24.68h-0.04h-0.042h-0.041h-0.041h-0.041h-0.041h-0.041h-0.042H24.31h-0.041
			H24.23h-0.041h-0.041h-0.041h-0.041h-0.041h-0.042h-0.041H23.9h-0.041h-0.041H23.78h-0.041h-0.041h-0.041h-0.041h-0.041h-0.041
			h-0.041h-0.042H23.41h-0.042h-0.041h-0.041h-0.041h-0.041h-0.041h-0.041h-0.041h-0.088v-9.82c0.029,0.024,0.058,0.049,0.088,0.073
			c0.013,0.011,0.027,0.022,0.041,0.033c0.014,0.011,0.027,0.021,0.041,0.032c0.014,0.011,0.027,0.021,0.041,0.031
			c0.014,0.01,0.027,0.021,0.041,0.029c0.013,0.01,0.027,0.02,0.041,0.029c0.013,0.01,0.027,0.02,0.041,0.029l0.041,0.026
			c0.014,0.009,0.027,0.019,0.042,0.028l0.041,0.027c0.014,0.008,0.027,0.017,0.042,0.025c0.013,0.01,0.027,0.018,0.041,0.025
			l0.041,0.025c0.014,0.008,0.027,0.016,0.041,0.023c0.014,0.007,0.027,0.016,0.041,0.023l0.041,0.023l0.041,0.021l0.041,0.022
			c0.014,0.007,0.027,0.015,0.041,0.022c0.014,0.007,0.027,0.014,0.041,0.021l0.041,0.021l0.042,0.021l0.041,0.02
			c0.014,0.007,0.027,0.014,0.042,0.02l0.041,0.02l0.041,0.019l0.041,0.019l0.041,0.018l0.041,0.018l0.041,0.018l0.041,0.017
			l0.041,0.017l0.042,0.017l0.041,0.017c0.014,0.004,0.027,0.01,0.041,0.016l0.041,0.015c0.014,0.005,0.027,0.011,0.041,0.015
			c0.014,0.006,0.027,0.01,0.041,0.016l0.042,0.014l0.041,0.014c0.014,0.006,0.027,0.01,0.041,0.015
			c0.013,0.004,0.027,0.008,0.041,0.013l0.041,0.014l0.042,0.013l0.041,0.013l0.041,0.012l0.041,0.012l0.041,0.013l0.041,0.011
			l0.042,0.012l0.041,0.01l0.041,0.012l0.041,0.01l0.042,0.012l0.041,0.01l0.041,0.01l0.041,0.009l0.041,0.009l0.042,0.01
			l0.041,0.009l0.041,0.009l0.041,0.008l0.041,0.008l0.041,0.008l0.042,0.009l0.041,0.008l0.041,0.007l0.041,0.008l0.042,0.006
			l0.041,0.008l0.042,0.007l0.041,0.007l0.041,0.007l0.041,0.007l0.041,0.006l0.041,0.006l0.041,0.005l0.041,0.006l0.041,0.006
			l0.041,0.005l0.041,0.005l0.041,0.005l0.041,0.006l0.042,0.004l0.041,0.004L26.58,32.5l0.041,0.004l0.041,0.004l0.041,0.004
			l0.041,0.004l0.041,0.004l0.041,0.004l0.041,0.002l0.042,0.004l0.041,0.002l0.041,0.002l0.041,0.004l0.041,0.003l0.042,0.003
			l0.041,0.002l0.041,0.002l0.041,0.002l0.041,0.002l0.041,0.002l0.041,0.002l0.041,0.002l0.041,0.001l0.042,0.002l0.041,0.001
			l0.041,0.002l0.041,0.002h0.041l0.041,0.002h0.042l0.041,0.002h0.041h0.041h0.042h0.041h0.041h0.041h0.041h0.041h0.041h0.041
			h0.041h0.041h0.041h0.041h0.041h0.041l0.041-0.002h0.042h0.041l0.042-0.002h0.041l0.041-0.002h0.042l0.041-0.002l0.041-0.002
			l0.041-0.001l0.041-0.002l0.041-0.001l0.041-0.001l0.02-0.001h0.021l0.041-0.002l0.041-0.002l0.043-0.002l0.041-0.002l0.041-0.003
			l0.041-0.002l0.041-0.003l0.041-0.004l0.041-0.002l0.041-0.004l0.041-0.002l0.041-0.004l0.041-0.004l0.041-0.003l0.041-0.004
			l0.041-0.003l0.041-0.004l0.043-0.004l0.04-0.005l0.041-0.003l0.041-0.006l0.042-0.004l0.041-0.004l0.041-0.005l0.041-0.005
			l0.041-0.005l0.041-0.005l0.042-0.005l0.041-0.005l0.041-0.006l0.041-0.004l0.041-0.007l0.042-0.006l0.041-0.006l0.041-0.005
			l0.041-0.006l0.041-0.008l0.042-0.006l0.041-0.006l0.041-0.007l0.041-0.006l0.041-0.006l0.042-0.007l0.041-0.006l0.041-0.008
			l0.041-0.007l0.041-0.007l0.042-0.007l0.041-0.007l0.041-0.008l0.041-0.008l0.041-0.007l0.042-0.007l0.041-0.007l0.041-0.009
			l0.041-0.008l0.041-0.007l0.041-0.008l0.041-0.009l0.041-0.008l0.041-0.008l0.041-0.008L31.6,32.21l0.041-0.008l0.043-0.01
			l0.041-0.008l0.041-0.009l0.041-0.009l0.041-0.008l0.041-0.01l0.041-0.008l0.041-0.01l0.043-0.009l0.041-0.009l0.041-0.01
			l0.041-0.01l0.041-0.01l0.041-0.01l0.041-0.01l0.041-0.01l0.041-0.01v-1.799l-0.041,0.021l-0.041,0.02l-0.039,0.015l-0.041,0.02
			l-0.041,0.02l-0.041,0.02l-0.041,0.02l-0.041,0.02l-0.043,0.019l-0.041,0.019l-0.041,0.02l-0.041,0.02l-0.041,0.018l-0.041,0.018
			l-0.041,0.019l-0.041,0.019l-0.043,0.017l-0.041,0.017l-0.041,0.018L31.52,30.62l-0.041,0.017l-0.041,0.016l-0.041,0.016
			l-0.041,0.016L31.315,30.7l-0.041,0.016l-0.041,0.016l-0.041,0.015l-0.042,0.015l-0.041,0.014l-0.041,0.014l-0.041,0.014
			l-0.041,0.014l-0.042,0.014l-0.041,0.013l-0.041,0.013l-0.041,0.014l-0.041,0.012l-0.042,0.012l-0.041,0.013l-0.041,0.011
			l-0.041,0.012l-0.041,0.012l-0.042,0.011l-0.041,0.011l-0.041,0.012l-0.041,0.01L30.368,31l-0.042,0.01l-0.041,0.01l-0.041,0.008
			l-0.041,0.01l-0.041,0.009l-0.042,0.009l-0.041,0.008l-0.041,0.01l-0.041,0.008l-0.041,0.008l-0.041,0.007l-0.042,0.007
			l-0.041,0.008l-0.041,0.006l-0.04,0.007l-0.043,0.006l-0.041,0.006l-0.041,0.006l-0.041,0.007l-0.041,0.004l-0.041,0.006
			l-0.041,0.006l-0.041,0.005l-0.041,0.004l-0.041,0.005l-0.068,0.001l-0.041,0.004l-0.04,0.003l-0.041,0.004l-0.041,0.004
			l-0.025,0.002h-0.016l-0.041,0.004l-0.042,0.002l-0.041,0.002L28.9,31.187l-0.041,0.002L28.82,31.19l-0.041,0.001l-0.041,0.001
			h-0.041l-0.042,0.001c-0.014,0-0.027,0-0.041,0h-0.041l-0.042-0.001H28.49l-0.042-0.001c-0.013,0-0.027,0-0.041-0.001
			c-0.014-0.001-0.027-0.001-0.041-0.002l-0.041-0.002l-0.041-0.002l-0.041-0.004l-0.041-0.002
			c-0.013-0.002-0.027-0.002-0.041-0.004c-0.014,0-0.027-0.002-0.041-0.004l-0.041-0.004l-0.041-0.005l-0.041-0.004l-0.041-0.006
			l-0.041-0.006c-0.014-0.003-0.028-0.005-0.041-0.007c-0.014-0.002-0.027-0.004-0.042-0.006c-0.013-0.002-0.027-0.004-0.041-0.006
			c-0.014-0.004-0.027-0.006-0.041-0.009s-0.028-0.004-0.041-0.008c-0.015-0.002-0.027-0.005-0.042-0.009
			c-0.014-0.002-0.027-0.004-0.041-0.008c-0.014-0.002-0.027-0.006-0.041-0.01l-0.041-0.01c-0.014-0.003-0.027-0.007-0.041-0.01
			s-0.028-0.008-0.041-0.01c-0.014-0.004-0.027-0.008-0.042-0.012c-0.013-0.004-0.027-0.008-0.041-0.012
			c-0.013-0.004-0.027-0.008-0.041-0.012c-0.014-0.004-0.027-0.008-0.041-0.014c-0.014-0.004-0.027-0.009-0.041-0.013
			c-0.014-0.005-0.027-0.009-0.041-0.014c-0.014-0.005-0.027-0.011-0.041-0.015c-0.014-0.006-0.027-0.011-0.041-0.016
			c-0.014-0.005-0.027-0.011-0.041-0.016c-0.014-0.006-0.027-0.012-0.042-0.017c-0.014-0.006-0.027-0.012-0.041-0.018
			c-0.014-0.007-0.027-0.013-0.041-0.019c-0.013-0.006-0.027-0.013-0.041-0.019c-0.014-0.006-0.027-0.013-0.041-0.021
			c-0.014-0.006-0.027-0.013-0.042-0.02c-0.014-0.007-0.027-0.014-0.041-0.021c-0.014-0.006-0.028-0.014-0.041-0.021
			c-0.014-0.008-0.028-0.017-0.041-0.022c-0.014-0.009-0.027-0.017-0.041-0.023c-0.014-0.008-0.027-0.018-0.041-0.025
			c-0.014-0.007-0.027-0.017-0.041-0.025c-0.014-0.008-0.028-0.018-0.041-0.025c-0.014-0.009-0.027-0.02-0.041-0.027
			c-0.014-0.01-0.027-0.02-0.041-0.029c-0.014-0.01-0.028-0.021-0.042-0.03c-0.014-0.01-0.027-0.021-0.041-0.031
			c-0.014-0.011-0.028-0.021-0.041-0.032c-0.014-0.013-0.028-0.022-0.041-0.035c-0.014-0.012-0.027-0.023-0.041-0.035
			c-0.014-0.012-0.027-0.025-0.041-0.037c-0.014-0.014-0.027-0.026-0.041-0.04c-0.014-0.013-0.028-0.027-0.041-0.041
			c-0.014-0.015-0.027-0.029-0.041-0.043c-0.014-0.015-0.027-0.03-0.041-0.045c-0.014-0.015-0.027-0.032-0.041-0.048
			c-0.014-0.017-0.027-0.033-0.041-0.051c-0.014-0.018-0.027-0.035-0.041-0.053c-0.014-0.019-0.028-0.038-0.042-0.056
			c-0.014-0.021-0.027-0.04-0.041-0.06c-0.014-0.021-0.028-0.043-0.042-0.064s-0.027-0.046-0.041-0.069
			c-0.014-0.024-0.028-0.049-0.041-0.073c-0.014-0.026-0.028-0.054-0.041-0.08c-0.015-0.029-0.028-0.06-0.042-0.088
			c-0.014-0.033-0.028-0.063-0.041-0.097c-0.015-0.037-0.028-0.073-0.041-0.11c-0.014-0.041-0.028-0.082-0.041-0.125
			c-0.014-0.049-0.029-0.099-0.041-0.149c-0.016-0.063-0.029-0.128-0.041-0.194c-0.018-0.098-0.032-0.197-0.042-0.301
			c-0.011-0.119-0.017-0.242-0.017-0.368c0-0.126,0.006-0.249,0.017-0.368c0.01-0.104,0.023-0.204,0.042-0.302
			c0.012-0.065,0.025-0.13,0.041-0.194c0.012-0.051,0.026-0.101,0.041-0.15c0.013-0.042,0.027-0.084,0.041-0.125
			c0.013-0.037,0.026-0.074,0.041-0.11c0.013-0.032,0.027-0.064,0.041-0.096c0.013-0.03,0.027-0.06,0.042-0.088
			c0.012-0.027,0.026-0.054,0.041-0.081c0.013-0.025,0.027-0.05,0.041-0.074c0.013-0.023,0.027-0.046,0.041-0.069
			c0.014-0.022,0.027-0.042,0.042-0.064c0.013-0.02,0.027-0.04,0.041-0.06c0.014-0.018,0.027-0.037,0.042-0.056
			c0.013-0.018,0.027-0.036,0.041-0.053c0.014-0.017,0.027-0.034,0.041-0.05c0.014-0.017,0.027-0.032,0.041-0.048
			c0.014-0.016,0.027-0.031,0.041-0.045c0.014-0.015,0.027-0.029,0.041-0.044c0.013-0.013,0.027-0.027,0.041-0.04
			c0.014-0.014,0.027-0.026,0.041-0.04c0.014-0.012,0.027-0.025,0.041-0.037c0.014-0.013,0.027-0.024,0.041-0.036
			c0.013-0.012,0.027-0.022,0.041-0.034c0.013-0.011,0.027-0.022,0.041-0.033c0.013-0.011,0.027-0.021,0.041-0.032
			s0.027-0.02,0.042-0.03c0.013-0.01,0.027-0.02,0.041-0.029c0.014-0.009,0.027-0.019,0.041-0.028
			c0.013-0.009,0.027-0.018,0.041-0.026c0.014-0.009,0.027-0.018,0.041-0.026c0.014-0.008,0.027-0.017,0.041-0.025
			s0.027-0.015,0.041-0.023c0.013-0.008,0.027-0.016,0.041-0.023c0.013-0.007,0.027-0.014,0.041-0.021
			c0.014-0.007,0.027-0.015,0.041-0.021c0.014-0.007,0.028-0.013,0.042-0.02c0.014-0.007,0.027-0.013,0.041-0.021
			c0.013-0.006,0.027-0.013,0.041-0.019c0.014-0.005,0.027-0.012,0.041-0.018c0.014-0.006,0.027-0.012,0.041-0.018
			c0.014-0.005,0.027-0.011,0.042-0.016c0.013-0.005,0.027-0.011,0.041-0.016s0.027-0.01,0.041-0.015
			c0.014-0.005,0.027-0.01,0.041-0.016c0.014-0.004,0.027-0.009,0.041-0.014c0.014-0.004,0.027-0.009,0.041-0.013
			c0.014-0.005,0.027-0.008,0.041-0.013c0.013-0.004,0.027-0.008,0.041-0.012l0.041-0.012c0.014-0.004,0.027-0.008,0.042-0.012
			c0.013-0.003,0.027-0.007,0.041-0.01c0.014-0.003,0.027-0.007,0.041-0.01l0.041-0.01c0.014-0.003,0.027-0.006,0.041-0.01
			c0.014-0.003,0.027-0.005,0.041-0.008s0.027-0.006,0.042-0.008c0.013-0.003,0.027-0.005,0.041-0.008
			c0.014-0.003,0.027-0.005,0.041-0.008c0.014-0.002,0.027-0.004,0.041-0.006c0.014-0.003,0.027-0.005,0.042-0.007l0.041-0.006
			l0.041-0.006l0.041-0.006l0.041-0.004l0.041-0.005l0.041-0.004c0.014-0.002,0.027-0.003,0.041-0.004
			c0.014-0.001,0.028-0.002,0.041-0.003l0.041-0.003l0.041-0.003l0.041-0.002l0.041-0.002c0.014-0.001,0.027-0.001,0.041-0.002
			c0.014-0.001,0.027-0.001,0.041-0.001l0.042-0.001h0.041l0.042-0.001h0.041c0.014,0,0.027,0,0.041,0l0.042,0.001h0.041
			l0.041,0.001l0.041,0.001l0.041,0.001l0.041,0.002l0.041,0.002l0.041,0.002l0.042,0.002l0.041,0.003l0.016,0.001l0.025,0.002
			l0.041,0.003l0.041,0.004l0.041,0.003l0.041,0.004l0.041,0.004l0.04,0.005l0.041,0.004l0.041,0.005l0.041,0.004l0.041,0.006
			l0.041,0.005l0.041,0.006l0.043,0.006l0.041,0.006l0.041,0.006l0.041,0.006l0.041,0.008l0.041,0.007l0.043,0.007l0.041,0.008
			l0.041,0.007l0.041,0.008l0.041,0.008l0.041,0.008l0.041,0.008l0.041,0.009l0.041,0.009l0.041,0.009l0.041,0.01l0.043,0.01
			l0.041,0.01l0.041,0.01l0.041,0.01l0.041,0.011l0.041,0.011l0.041,0.011l0.041,0.012l0.041,0.012l0.041,0.012l0.043,0.012
			l0.041,0.013l0.041,0.013l0.041,0.013l0.041,0.013l0.041,0.013l0.041,0.014l0.041,0.013l0.041,0.014l0.041,0.015l0.043,0.014
			l0.04,0.015l0.041,0.015l0.041,0.015l0.041,0.016l0.041,0.016l0.041,0.016l0.041,0.017l0.041,0.017l0.041,0.017l0.042,0.017
			l0.041,0.017l0.042,0.018l0.041,0.018l0.041,0.018L31.784,26l0.042,0.018l0.041,0.019l0.041,0.019l0.041,0.019l0.042,0.019
			l0.041,0.02l0.041,0.019l0.041,0.021l0.041,0.02l0.042,0.02l0.041,0.021l0.041,0.02l0.041,0.021v-1.8l-0.041-0.01l-0.041-0.01
			l-0.041-0.009l-0.042-0.01l-0.041-0.01l-0.041-0.009l-0.041-0.009l-0.041-0.009l-0.042-0.009l-0.041-0.009l-0.057-0.022
			l-0.041-0.009l-0.041-0.008l-0.041-0.009l-0.041-0.008l-0.041-0.008l-0.043-0.009l-0.04-0.008l-0.042-0.008l-0.041-0.008
			l-0.041-0.008l-0.041-0.008l-0.041-0.009l-0.041-0.008l-0.041-0.007l-0.041-0.008l-0.041-0.007l-0.041-0.007l-0.042-0.008
			l-0.041-0.007l-0.041-0.007l-0.041-0.008l-0.041-0.007l-0.042-0.007l-0.041-0.007l-0.041-0.007l-0.041-0.007l-0.041-0.006
			l-0.042-0.006l-0.041-0.006l-0.041-0.007l-0.041-0.006l-0.041-0.006l-0.042-0.005l-0.041-0.007l-0.041-0.006l-0.041-0.006
			l-0.041-0.006l-0.042-0.005l-0.041-0.006l-0.041-0.005l-0.041-0.005l-0.041-0.005l-0.042-0.005l-0.041-0.005l-0.041-0.005
			l-0.041-0.005l-0.041-0.004l-0.041-0.005l-0.042-0.004l-0.041-0.005l-0.041-0.004L29.711,24l-0.031-0.009l-0.041-0.004
			l-0.041-0.003l-0.041-0.004l-0.041-0.003l-0.041-0.004l-0.041-0.004l-0.041-0.003l-0.041-0.003l-0.041-0.003l-0.041-0.003
			l-0.041-0.003l-0.041-0.002l-0.041-0.002l-0.041-0.003l-0.043-0.002l-0.037-0.004l-0.042-0.002l-0.021-0.001h-0.02l-0.041-0.002
			l-0.041-0.002l-0.04-0.003L28.78,23.93l-0.041-0.001l-0.041-0.001l-0.042-0.001l-0.041-0.001h-0.041l-0.042-0.001H28.49
			l-0.04-0.004l-0.041-0.001h-0.041l-0.041-0.001h-0.041h-0.041h-0.041h-0.041h-0.041h-0.041H28.04H28h-0.041h-0.041h-0.041
			l-0.042,0.001h-0.041l-0.041,0.001l-0.041,0.001l-0.042,0.001h-0.041l-0.041,0.001l-0.041,0.001l-0.041,0.001l-0.041,0.001
			l-0.042,0.002l-0.041,0.001l-0.041,0.002L27.3,23.934l-0.041,0.002l-0.041,0.002l-0.041,0.002l-0.041,0.002l-0.041,0.003
			l-0.042,0.002l-0.041,0.003l-0.041,0.003l-0.041,0.002l-0.041,0.003l-0.042,0.003l-0.041,0.003l-0.041,0.004l-0.041,0.004
			l-0.041,0.004l-0.041,0.003l-0.041,0.005l-0.041,0.004l-0.041,0.005l-0.041,0.004l-0.042,0.005l-0.041,0.005l-0.041,0.005
			l-0.041,0.006l-0.041,0.005l-0.041,0.005l-0.034,0.013l-0.041,0.005l-0.041,0.006l-0.041,0.007l-0.041,0.005l-0.041,0.007
			l-0.041,0.007l-0.042,0.007l-0.041,0.007l-0.042,0.007l-0.041,0.007l-0.041,0.008l-0.041,0.008l-0.042,0.008l-0.041,0.008
			l-0.041,0.008l-0.041,0.009l-0.041,0.009l-0.041,0.009l-0.042,0.009l-0.041,0.009l-0.041,0.01l-0.041,0.01l-0.041,0.01
			l-0.042,0.01l-0.035,0.01l-0.041,0.011l-0.041,0.011l-0.042,0.011l-0.041,0.012l-0.041,0.012l-0.041,0.012l-0.041,0.012
			l-0.041,0.012l-0.042,0.013l-0.041,0.013c-0.013,0.004-0.027,0.009-0.041,0.013l-0.041,0.014
			c-0.014,0.005-0.028,0.009-0.041,0.014l-0.042,0.015l-0.041,0.014c-0.014,0.005-0.027,0.01-0.041,0.015
			c-0.013,0.005-0.027,0.01-0.041,0.015l-0.041,0.016c-0.014,0.005-0.028,0.01-0.041,0.016l-0.042,0.016l-0.041,0.016l-0.041,0.017
			l-0.041,0.017l-0.041,0.017l-0.041,0.018l-0.041,0.018l-0.041,0.019l-0.041,0.019c-0.014,0.006-0.027,0.013-0.042,0.019
			l-0.041,0.021l-0.042,0.021l-0.041,0.021c-0.014,0.007-0.027,0.014-0.041,0.021c-0.014,0.007-0.027,0.015-0.041,0.022
			l-0.041,0.022l-0.041,0.022c-0.014,0.008-0.027,0.016-0.041,0.023c-0.014,0.007-0.027,0.016-0.041,0.024
			c-0.014,0.008-0.027,0.016-0.041,0.024c-0.014,0.009-0.027,0.017-0.041,0.025s-0.027,0.017-0.041,0.025
			c-0.014,0.008-0.028,0.017-0.042,0.026l-0.041,0.027c-0.014,0.009-0.027,0.018-0.042,0.027l-0.041,0.028
			c-0.014,0.01-0.028,0.02-0.041,0.029c-0.014,0.01-0.028,0.02-0.041,0.029c-0.014,0.01-0.027,0.02-0.041,0.031
			c-0.014,0.01-0.027,0.02-0.041,0.031c-0.014,0.011-0.027,0.021-0.041,0.032c-0.014,0.011-0.028,0.022-0.041,0.033
			c-0.03,0.024-0.06,0.049-0.088,0.073v-5.567c0-0.296,0.03-0.585,0.088-0.864c0.012-0.06,0.025-0.12,0.041-0.178
			c0.013-0.051,0.027-0.101,0.041-0.151c0.013-0.044,0.026-0.088,0.041-0.132c0.013-0.04,0.026-0.08,0.041-0.119
			c0.013-0.037,0.027-0.073,0.041-0.109c0.013-0.034,0.027-0.067,0.041-0.101c0.013-0.032,0.027-0.063,0.041-0.094
			c0.014-0.03,0.027-0.059,0.042-0.088c0.013-0.028,0.026-0.056,0.041-0.083c0.014-0.026,0.027-0.053,0.042-0.079
			c0.013-0.025,0.027-0.05,0.041-0.075c0.014-0.024,0.027-0.048,0.041-0.072c0.014-0.023,0.027-0.046,0.041-0.069
			c0.013-0.022,0.027-0.044,0.041-0.066c0.014-0.021,0.027-0.042,0.041-0.063c0.013-0.021,0.027-0.041,0.041-0.062
			c0.014-0.019,0.027-0.039,0.041-0.059c0.013-0.019,0.027-0.038,0.041-0.056c0.014-0.018,0.027-0.037,0.041-0.055
			c0.013-0.019,0.027-0.036,0.041-0.054c0.014-0.017,0.027-0.034,0.042-0.051c0.013-0.017,0.027-0.034,0.041-0.05
			c0.014-0.016,0.027-0.032,0.042-0.048c0.013-0.016,0.027-0.031,0.041-0.047c0.014-0.015,0.027-0.03,0.041-0.045
			c0.013-0.015,0.027-0.03,0.041-0.044c0.014-0.014,0.027-0.029,0.041-0.043c0.014-0.014,0.027-0.028,0.041-0.042
			c0.014-0.014,0.027-0.027,0.041-0.041c0.014-0.014,0.027-0.027,0.041-0.041c0.013-0.013,0.027-0.025,0.041-0.038
			c0.014-0.013,0.027-0.025,0.042-0.038c0.013-0.012,0.027-0.024,0.041-0.037c0.014-0.013,0.027-0.024,0.041-0.036
			c0.013-0.012,0.027-0.023,0.041-0.035c0.014-0.012,0.027-0.023,0.041-0.034c0.014-0.011,0.027-0.022,0.041-0.033
			c0.014-0.011,0.027-0.022,0.042-0.033c0.013-0.01,0.027-0.021,0.041-0.031c0.014-0.01,0.027-0.021,0.041-0.031
			c0.013-0.01,0.027-0.02,0.041-0.03c0.014-0.009,0.028-0.02,0.041-0.029c0.014-0.009,0.027-0.019,0.042-0.028
			c0.014-0.01,0.027-0.019,0.041-0.028c0.013-0.009,0.027-0.018,0.041-0.027c0.013-0.009,0.027-0.018,0.041-0.026
			c0.014-0.009,0.027-0.018,0.041-0.026c0.014-0.009,0.027-0.017,0.041-0.025c0.014-0.008,0.027-0.016,0.042-0.024
			c0.013-0.008,0.027-0.017,0.041-0.024c0.014-0.008,0.027-0.015,0.041-0.022c0.014-0.008,0.027-0.016,0.041-0.023
			c0.014-0.007,0.027-0.015,0.042-0.021c0.013-0.007,0.027-0.015,0.041-0.021l0.041-0.021l0.041-0.021
			c0.014-0.007,0.027-0.013,0.041-0.02c0.014-0.007,0.027-0.013,0.042-0.02c0.014-0.006,0.027-0.013,0.041-0.019
			c0.013-0.006,0.027-0.012,0.041-0.018c0.014-0.006,0.028-0.012,0.041-0.018c0.014-0.006,0.027-0.011,0.041-0.017l0.041-0.017
			c0.014-0.005,0.027-0.011,0.042-0.016c0.013-0.005,0.027-0.011,0.041-0.016c0.014-0.005,0.027-0.011,0.041-0.015
			c0.014-0.005,0.027-0.01,0.041-0.015c0.014-0.005,0.027-0.01,0.042-0.015c0.013-0.004,0.027-0.009,0.041-0.014l0.042-0.014
			c0.013-0.004,0.027-0.009,0.041-0.012c0.014-0.005,0.027-0.009,0.041-0.013c0.014-0.004,0.027-0.008,0.041-0.012
			c0.014-0.004,0.027-0.007,0.041-0.011l0.041-0.012c0.014-0.003,0.027-0.007,0.041-0.01c0.014-0.003,0.027-0.007,0.041-0.01
			c0.014-0.003,0.027-0.007,0.041-0.01c0.014-0.003,0.027-0.006,0.041-0.009l0.041-0.009c0.014-0.003,0.027-0.006,0.041-0.008
			c0.014-0.003,0.027-0.005,0.041-0.008c0.014-0.002,0.027-0.005,0.042-0.008l0.041-0.007l0.041-0.007
			c0.014-0.002,0.027-0.005,0.041-0.007c0.014-0.001,0.027-0.003,0.041-0.005c0.014-0.002,0.027-0.004,0.041-0.006l0.041-0.005
			l0.041-0.004c0.013-0.002,0.027-0.003,0.041-0.005c0.014-0.001,0.027-0.002,0.041-0.003l0.042-0.004
			c0.014-0.001,0.027-0.002,0.041-0.003c0.013-0.001,0.027-0.002,0.041-0.003c0.014,0,0.027-0.002,0.041-0.002
			c0.014-0.001,0.028-0.001,0.041-0.002l0.042-0.001c0.013,0,0.027-0.001,0.041-0.002c0.014,0,0.027,0,0.041,0s0.027,0,0.041,0
			h0.018h0.023h0.041h0.041h0.041h0.041h0.042h0.041h0.041h0.041h0.041h0.041h0.042h0.041h0.041h0.041h0.042h0.041h0.041h0.041
			h0.041h0.041h0.041h0.041h0.041h0.041H28.3h0.041h0.041h0.041h0.041h0.042h0.041h0.042h0.041h0.041h0.042h0.041h0.041h0.041h0.041
			h0.041h0.041H29h0.043h0.041h0.041h0.041h0.041h0.041h0.041h0.041h0.041h0.041h0.041h0.041h0.041h0.041h0.041h0.042H29.7h0.042
			h0.041h0.041h0.041h0.042h0.041h0.041h0.041h0.041h0.041h0.042h0.041h0.041h0.041h0.041h0.042h0.041h0.041h0.041h0.041h0.042
			h0.041h0.041h0.041h0.041h0.042h0.041h0.041h0.041h0.04h0.043h0.041h0.041h0.041h0.041h0.041h0.041h0.041h0.041h0.041h0.041h0.041
			h0.041h0.041h0.041h0.043h0.041h0.041h0.041h0.041H31.8h0.043h0.041h0.041h0.041h0.041h0.041h0.041h0.041h0.041h0.043h0.041h0.041
			h0.041h0.041h0.041h0.041h0.041h0.041h0.041h0.041h0.041h0.041h0.041h0.042h0.041h0.041h0.041h0.041h0.041h0.042h0.003h0.041
			h0.041h0.041h0.042h0.041h0.041h0.041h0.041h0.042h0.041h0.035V36.747z M45.259,36.747h-0.007c0,0.126-0.007,0.252-0.018,0.376
			c-0.01,0.109-0.023,0.217-0.041,0.324c-0.014,0.072-0.026,0.143-0.042,0.213c-0.013,0.059-0.026,0.114-0.041,0.171
			c-0.013,0.048-0.027,0.097-0.041,0.146c-0.013,0.043-0.027,0.087-0.041,0.129c-0.013,0.039-0.026,0.078-0.041,0.115
			s-0.026,0.071-0.041,0.106c-0.015,0.033-0.026,0.065-0.042,0.099c-0.014,0.031-0.025,0.062-0.041,0.092
			c-0.014,0.029-0.027,0.06-0.041,0.086c-0.014,0.029-0.027,0.057-0.041,0.084c-0.014,0.025-0.027,0.052-0.042,0.076
			c-0.015,0.025-0.026,0.051-0.041,0.074c-0.015,0.024-0.026,0.047-0.041,0.071c-0.013,0.022-0.026,0.045-0.041,0.067
			c-0.013,0.022-0.026,0.043-0.041,0.065c-0.015,0.021-0.026,0.042-0.041,0.063c-0.015,0.02-0.026,0.039-0.041,0.06
			c-0.015,0.019-0.026,0.039-0.041,0.06c-0.014,0.019-0.026,0.037-0.042,0.056c-0.013,0.019-0.027,0.036-0.041,0.054
			c-0.014,0.018-0.027,0.036-0.041,0.053c-0.014,0.018-0.027,0.035-0.041,0.052c-0.014,0.016-0.027,0.032-0.042,0.049
			c-0.013,0.017-0.026,0.032-0.041,0.048c-0.013,0.016-0.026,0.031-0.041,0.047c-0.013,0.016-0.026,0.03-0.041,0.045
			c-0.014,0.016-0.026,0.029-0.042,0.043c-0.014,0.016-0.027,0.028-0.041,0.043c-0.014,0.014-0.027,0.027-0.041,0.041
			c-0.013,0.014-0.027,0.026-0.041,0.04c-0.014,0.013-0.027,0.026-0.041,0.039c-0.014,0.013-0.027,0.026-0.041,0.039
			c-0.014,0.013-0.027,0.025-0.042,0.037c-0.013,0.013-0.026,0.024-0.041,0.037c-0.013,0.012-0.026,0.022-0.04,0.035
			c-0.014,0.012-0.027,0.022-0.041,0.034c-0.015,0.012-0.027,0.022-0.041,0.033c-0.015,0.012-0.027,0.022-0.043,0.033
			c-0.014,0.012-0.027,0.021-0.041,0.032c-0.013,0.01-0.027,0.021-0.041,0.032c-0.014,0.01-0.027,0.02-0.041,0.029
			c-0.015,0.01-0.027,0.021-0.041,0.03c-0.015,0.009-0.027,0.019-0.043,0.028c-0.014,0.01-0.027,0.02-0.041,0.029
			c-0.014,0.009-0.027,0.018-0.041,0.026c-0.014,0.008-0.027,0.019-0.041,0.027c-0.014,0.008-0.027,0.017-0.041,0.024
			c-0.014,0.01-0.027,0.019-0.041,0.026c-0.014,0.007-0.027,0.017-0.041,0.024l-0.033,0.029c-0.014,0.008-0.028,0.016-0.043,0.022
			c-0.012,0.008-0.026,0.016-0.041,0.022c-0.014,0.008-0.026,0.016-0.041,0.022c-0.014,0.007-0.027,0.015-0.041,0.021
			c-0.014,0.008-0.027,0.015-0.041,0.022c-0.014,0.007-0.027,0.015-0.041,0.021c-0.014,0.006-0.027,0.015-0.041,0.021
			c-0.014,0.006-0.027,0.014-0.041,0.02l-0.043,0.02l-0.041,0.02c-0.014,0.006-0.026,0.012-0.041,0.018
			c-0.014,0.006-0.027,0.012-0.041,0.018c-0.014,0.006-0.026,0.012-0.041,0.018c-0.014,0.006-0.026,0.012-0.041,0.017
			c-0.014,0.005-0.027,0.011-0.041,0.017c-0.014,0.004-0.027,0.01-0.041,0.016l-0.041,0.015c-0.014,0.005-0.027,0.011-0.041,0.015
			c-0.014,0.004-0.027,0.011-0.042,0.015c-0.015,0.005-0.027,0.009-0.041,0.014l-0.041,0.013c-0.015,0.004-0.028,0.009-0.042,0.013
			l-0.041,0.012c-0.014,0.005-0.028,0.009-0.042,0.013c-0.015,0.004-0.027,0.006-0.041,0.01c-0.015,0.005-0.027,0.009-0.041,0.012
			l-0.041,0.011l-0.041,0.011l-0.041,0.01c-0.015,0.003-0.027,0.006-0.042,0.009c-0.014,0.003-0.027,0.006-0.041,0.009l-0.042,0.008
			l-0.041,0.01c-0.015,0.002-0.026,0.004-0.041,0.008c-0.015,0.002-0.028,0.004-0.042,0.006l-0.041,0.006l-0.041,0.006l-0.041,0.006
			c-0.014,0.002-0.027,0.004-0.041,0.006s-0.027,0.002-0.042,0.004c-0.015,0-0.026,0.002-0.041,0.004s-0.026,0.002-0.041,0.004
			c-0.013,0-0.026,0.003-0.041,0.004c-0.015,0.001-0.026,0.003-0.041,0.004c-0.015,0.001-0.026,0.001-0.041,0.003l-0.042,0.002
			c-0.014,0.001-0.027,0.002-0.041,0.002c-0.014,0.001-0.027,0.001-0.042,0.001L41.119,41h-0.042c-0.014,0-0.027,0-0.041,0h-0.041
			h-0.008h-0.032h-0.042h-0.041H40.83h-0.041H40.76h-0.041h-0.041h-0.041h-0.041h-0.041h-0.041h-0.041H40.43h-0.039H40.35h-0.041
			h-0.041h-0.041h-0.043h-0.041h-0.041h-0.041H40.02h-0.04h-0.042h-0.041h-0.041h-0.042h-0.041h-0.041h-0.041H39.65h-0.04h-0.041
			h-0.041h-0.041h-0.041h-0.041h-0.041h-0.041h-0.041h-0.041H39.2h-0.042h-0.041h-0.041h-0.041h-0.041h-0.042h-0.041H38.87h-0.04
			h-0.041h-0.042h-0.041h-0.042h-0.041h-0.041H38.54h-0.041h-0.041H38.42h-0.041h-0.041h-0.041h-0.041h-0.041h-0.041h-0.041H38.09
			h-0.041H38.01h-0.041h-0.041h-0.041h-0.041h-0.041h-0.043h-0.041H37.68h-0.039h-0.043h-0.041h-0.041h-0.041h-0.041h-0.041h-0.041
			h-0.041H37.27h-0.041h-0.04h-0.041h-0.041h-0.041h-0.042h-0.041h-0.041H36.9h-0.04h-0.042h-0.041h-0.041h-0.042h-0.041h-0.042
			H36.57h-0.041H36.49h-0.041h-0.041h-0.041h-0.041h-0.041h-0.041h-0.042h-0.041H36.12h-0.04h-0.041h-0.042h-0.041h-0.041h-0.041
			h-0.041h-0.042H35.75h-0.041H35.67h-0.041h-0.041h-0.041h-0.041h-0.041h-0.041h-0.041H35.34h-0.039H35.26h-0.041h-0.043h-0.041
			h-0.041h-0.041h-0.041h-0.041H34.93h-0.039h-0.043H34.76v-8.67h0.088h0.043h0.041h0.041h0.041h0.041h0.041h0.041h0.041h0.043
			h0.041h0.041h0.041h0.041h0.041h0.041h0.041h0.043h0.041h0.041h0.041h0.041h0.041h0.041h0.041h0.041h0.041h0.041h0.041h0.043
			h0.041h0.041h0.041h0.041h0.043h0.041h0.04h0.041h0.041h0.041h0.041h0.041h0.041h0.041h0.042h0.041h0.042h0.041h0.041h0.042h0.041
			h0.041h0.041h0.041h0.042h0.041h0.041h0.041h0.041h0.041h0.042h0.041h0.041h0.041h0.042h0.041h0.041h0.041h0.03h0.041h0.041h0.041
			h0.043h0.041h0.041h0.041h0.041h0.041h0.041h0.041h0.043h0.041h0.041h0.041H38.3h0.041h0.041h0.041h0.043h0.041h0.041h0.041h0.041
			h0.041h0.043h0.041h0.041h0.041h0.041h0.041h0.041h0.043h0.041h0.041h0.041h0.041h0.041h0.041h0.041h0.041h0.041h0.041h0.041
			h0.041h0.041h0.041h0.041h0.041H39.7h0.041h0.041h0.041h0.042h0.041h0.041h0.042h0.041h0.042h0.041h0.041h0.041h0.042h0.041h0.041
			h0.041h0.041h0.041h0.042h0.041h0.041h0.041h0.041h0.042h0.041h0.041h0.041h0.041h0.041h0.041h0.042h0.04h0.041H41.1h0.043h0.041
			h0.041h0.041h0.043h0.041h0.021h0.021h0.041l0.041-0.001c0.014,0,0.027,0,0.041-0.001c0.014,0,0.027-0.001,0.041-0.002
			l0.041-0.002l0.041-0.002l0.041-0.002l0.041-0.003l0.043-0.004c0.014-0.002,0.026-0.002,0.041-0.004
			c0.014-0.002,0.026-0.004,0.041-0.004l0.041-0.006c0.015-0.002,0.027-0.003,0.041-0.005c0.016-0.002,0.027-0.004,0.043-0.006
			c0.014-0.002,0.026-0.004,0.041-0.006l0.041-0.007l0.041-0.008c0.014-0.002,0.026-0.004,0.041-0.008
			c0.014-0.002,0.026-0.006,0.041-0.008l0.021-0.009c0.014-0.003,0.027-0.006,0.041-0.009c0.014-0.004,0.027-0.008,0.042-0.012
			c0.013-0.002,0.026-0.006,0.041-0.01c0.015-0.003,0.026-0.007,0.041-0.011c0.015-0.003,0.026-0.008,0.042-0.011
			c0.014-0.004,0.027-0.008,0.041-0.014l0.041-0.012c0.013-0.005,0.027-0.009,0.041-0.014c0.014-0.006,0.027-0.01,0.041-0.014
			c0.014-0.006,0.027-0.011,0.042-0.016c0.014-0.005,0.026-0.01,0.041-0.015c0.013-0.007,0.026-0.011,0.041-0.017
			c0.014-0.007,0.026-0.012,0.041-0.018c0.014-0.005,0.026-0.012,0.041-0.018c0.014-0.006,0.026-0.013,0.042-0.019
			c0.013-0.007,0.027-0.013,0.041-0.021c0.014-0.006,0.027-0.012,0.041-0.02c0.014-0.007,0.027-0.014,0.041-0.021
			c0.014-0.006,0.027-0.015,0.041-0.021c0.014-0.006,0.027-0.015,0.041-0.023c0.014-0.006,0.027-0.016,0.042-0.022
			c0.013-0.008,0.026-0.017,0.04-0.024c0.015-0.009,0.029-0.018,0.043-0.026c0.014-0.008,0.027-0.019,0.041-0.027
			c0.015-0.009,0.027-0.019,0.041-0.028c0.015-0.01,0.027-0.02,0.041-0.029c0.015-0.01,0.027-0.021,0.041-0.032
			c0.015-0.011,0.029-0.021,0.041-0.033c0.015-0.011,0.027-0.022,0.041-0.034c0.015-0.012,0.029-0.023,0.041-0.035
			c0.015-0.014,0.027-0.025,0.043-0.039c0.013-0.014,0.027-0.025,0.041-0.039c0.014-0.016,0.027-0.028,0.041-0.043
			c0.014-0.016,0.027-0.03,0.041-0.045c0.015-0.017,0.029-0.032,0.041-0.049c0.015-0.017,0.029-0.033,0.043-0.052
			c0.014-0.019,0.027-0.037,0.041-0.056c0.014-0.021,0.027-0.04,0.041-0.061c0.015-0.021,0.027-0.044,0.041-0.064
			c0.015-0.023,0.027-0.049,0.041-0.073c0.015-0.026,0.027-0.053,0.041-0.081c0.016-0.031,0.029-0.062,0.041-0.093
			c0.016-0.036,0.029-0.073,0.041-0.11c0.016-0.046,0.029-0.093,0.041-0.14c0.019-0.07,0.031-0.142,0.041-0.214
			c0.013-0.09,0.019-0.18,0.019-0.274c0-0.091-0.006-0.18-0.019-0.266c-0.01-0.07-0.022-0.14-0.041-0.207
			c-0.012-0.046-0.025-0.091-0.041-0.136c-0.012-0.035-0.025-0.07-0.041-0.105c-0.012-0.031-0.026-0.061-0.041-0.09
			c-0.012-0.026-0.026-0.053-0.041-0.079c-0.014-0.022-0.026-0.046-0.041-0.069c-0.014-0.021-0.026-0.042-0.041-0.062
			c-0.014-0.021-0.027-0.04-0.041-0.059c-0.014-0.018-0.027-0.035-0.041-0.054c-0.014-0.017-0.027-0.033-0.043-0.049
			c-0.012-0.017-0.025-0.032-0.041-0.047c-0.012-0.015-0.026-0.029-0.041-0.044c-0.014-0.014-0.026-0.027-0.041-0.041
			c-0.014-0.014-0.027-0.026-0.041-0.039c-0.014-0.012-0.027-0.024-0.043-0.037c-0.012-0.012-0.026-0.023-0.041-0.035
			c-0.014-0.012-0.026-0.021-0.041-0.034c-0.012-0.01-0.026-0.021-0.041-0.03c-0.014-0.011-0.026-0.021-0.041-0.03
			c-0.014-0.011-0.026-0.021-0.041-0.029c-0.014-0.009-0.026-0.019-0.041-0.028c-0.014-0.009-0.027-0.018-0.041-0.025
			c-0.014-0.007-0.027-0.018-0.043-0.025c-0.012-0.008-0.026-0.016-0.04-0.023c-0.015-0.008-0.027-0.016-0.042-0.023
			c-0.014-0.008-0.027-0.016-0.041-0.021c-0.014-0.008-0.027-0.015-0.041-0.021c-0.014-0.008-0.027-0.014-0.041-0.021
			c-0.014-0.006-0.027-0.013-0.041-0.02c-0.014-0.006-0.027-0.013-0.041-0.02c-0.014-0.006-0.027-0.012-0.042-0.018
			c-0.015-0.005-0.027-0.011-0.041-0.017c-0.015-0.007-0.027-0.011-0.041-0.017c-0.015-0.006-0.028-0.011-0.041-0.017
			c-0.015-0.005-0.027-0.01-0.041-0.015c-0.015-0.004-0.027-0.01-0.042-0.015c-0.014-0.005-0.027-0.009-0.041-0.014
			c-0.014-0.004-0.027-0.009-0.041-0.013c-0.014-0.004-0.028-0.01-0.041-0.014l-0.041-0.012c-0.014-0.004-0.027-0.008-0.042-0.012
			c-0.015-0.004-0.026-0.008-0.041-0.012c-0.015-0.002-0.026-0.006-0.041-0.01c-0.015-0.003-0.028-0.007-0.042-0.01
			c-0.014-0.004-0.027-0.006-0.041-0.009c-0.014-0.005-0.027-0.007-0.042-0.009c-0.015-0.004-0.026-0.006-0.041-0.008l-0.041-0.009
			l-0.041-0.007c-0.015-0.002-0.026-0.005-0.041-0.007l-0.041-0.007c-0.015-0.002-0.026-0.004-0.042-0.006l-0.041-0.006
			l-0.042-0.004l-0.041-0.005l-0.041-0.004L41.7,28.155l-0.041-0.003l-0.038-0.003v-0.05l0.038-0.004l0.041-0.008
			c0.014-0.002,0.027-0.004,0.042-0.007l0.041-0.008c0.015-0.003,0.026-0.006,0.041-0.009l0.042-0.01
			c0.014-0.002,0.027-0.006,0.041-0.008c0.016-0.004,0.027-0.008,0.042-0.011c0.015-0.004,0.026-0.007,0.041-0.011
			c0.015-0.003,0.026-0.008,0.041-0.012c0.015-0.004,0.028-0.008,0.041-0.012c0.015-0.005,0.026-0.009,0.041-0.014
			c0.015-0.004,0.026-0.009,0.041-0.014c0.015-0.006,0.026-0.01,0.042-0.014c0.014-0.006,0.027-0.011,0.041-0.016
			s0.027-0.01,0.042-0.016c0.013-0.005,0.026-0.011,0.041-0.017c0.015-0.006,0.028-0.012,0.041-0.018
			c0.015-0.006,0.026-0.012,0.042-0.018c0.014-0.006,0.027-0.013,0.041-0.02c0.014-0.007,0.027-0.013,0.041-0.021
			c0.013-0.007,0.027-0.014,0.041-0.021s0.027-0.015,0.041-0.022c0.014-0.007,0.027-0.015,0.042-0.023
			c0.014-0.008,0.026-0.016,0.041-0.024c0.014-0.009,0.028-0.017,0.041-0.026c0.014-0.009,0.026-0.018,0.041-0.027
			c0.014-0.009,0.028-0.019,0.041-0.028c0.014-0.01,0.026-0.02,0.042-0.03c0.013-0.011,0.027-0.021,0.041-0.032
			c0.014-0.011,0.027-0.022,0.041-0.033c0.014-0.012,0.027-0.023,0.041-0.036c0.014-0.012,0.027-0.024,0.041-0.037
			s0.027-0.026,0.041-0.04c0.014-0.014,0.027-0.027,0.042-0.042c0.014-0.015,0.026-0.03,0.04-0.045
			c0.015-0.016,0.029-0.031,0.043-0.047c0.014-0.017,0.027-0.034,0.041-0.051c0.015-0.018,0.027-0.037,0.041-0.055
			c0.015-0.02,0.029-0.04,0.041-0.06c0.015-0.021,0.027-0.043,0.041-0.065c0.015-0.024,0.029-0.048,0.041-0.072
			c0.015-0.027,0.029-0.054,0.041-0.082c0.016-0.031,0.029-0.063,0.041-0.094c0.016-0.038,0.029-0.074,0.043-0.112
			c0.015-0.047,0.029-0.096,0.041-0.145c0.019-0.08,0.033-0.161,0.041-0.243c0.007-0.065,0.011-0.131,0.011-0.198
			c0-0.07-0.004-0.139-0.011-0.206c-0.008-0.085-0.021-0.168-0.041-0.248c-0.012-0.05-0.025-0.099-0.041-0.146
			c-0.014-0.038-0.026-0.075-0.043-0.112c-0.012-0.032-0.025-0.063-0.041-0.093c-0.012-0.027-0.026-0.054-0.041-0.08
			c-0.012-0.024-0.026-0.047-0.041-0.07c-0.014-0.022-0.026-0.043-0.041-0.064c-0.012-0.02-0.026-0.039-0.041-0.058
			c-0.014-0.018-0.026-0.036-0.041-0.053c-0.014-0.017-0.027-0.033-0.041-0.049c-0.014-0.016-0.027-0.03-0.043-0.046
			c-0.012-0.014-0.026-0.028-0.04-0.043c-0.015-0.014-0.027-0.027-0.042-0.04c-0.014-0.013-0.027-0.026-0.041-0.038
			c-0.014-0.012-0.027-0.024-0.041-0.036c-0.014-0.012-0.027-0.023-0.041-0.034c-0.014-0.011-0.027-0.022-0.041-0.033
			c-0.014-0.01-0.027-0.02-0.041-0.03s-0.027-0.02-0.042-0.029c-0.013-0.009-0.027-0.018-0.041-0.027
			c-0.015-0.009-0.027-0.018-0.041-0.026c-0.013-0.008-0.028-0.017-0.041-0.025c-0.015-0.008-0.027-0.016-0.041-0.024
			c-0.015-0.007-0.027-0.015-0.042-0.022c-0.014-0.007-0.027-0.014-0.041-0.021c-0.014-0.007-0.027-0.014-0.041-0.021
			c-0.014-0.006-0.027-0.014-0.041-0.02c-0.014-0.006-0.027-0.012-0.041-0.019c-0.014-0.006-0.027-0.011-0.042-0.017
			c-0.013-0.006-0.026-0.012-0.041-0.018c-0.015-0.005-0.026-0.011-0.041-0.017c-0.015-0.005-0.028-0.01-0.042-0.015
			s-0.027-0.01-0.041-0.015c-0.014-0.005-0.027-0.01-0.042-0.014c-0.015-0.005-0.026-0.009-0.041-0.014
			c-0.015-0.004-0.026-0.008-0.041-0.012c-0.013-0.005-0.026-0.008-0.041-0.013c-0.015-0.004-0.026-0.008-0.041-0.012
			c-0.015-0.003-0.026-0.007-0.041-0.01l-0.042-0.011c-0.014-0.003-0.027-0.007-0.041-0.01c-0.014-0.002-0.027-0.006-0.042-0.009
			l-0.041-0.008c-0.015-0.002-0.026-0.006-0.041-0.008c-0.015-0.003-0.028-0.005-0.042-0.008l-0.041-0.007
			c-0.013-0.003-0.027-0.005-0.041-0.007l-0.041-0.006L41.54,24.2l-0.042-0.005l-0.041-0.005l-0.041-0.004l-0.041-0.005
			l-0.041-0.003l-0.041-0.003l-0.041-0.003l-0.041-0.002l-0.017-0.001l-0.024-0.002l-0.041-0.002l-0.043-0.002l-0.041-0.002
			l-0.041-0.002l-0.041-0.002l-0.041-0.001l-0.041-0.001l-0.041-0.001h-0.041h-0.022H40.76h-0.041h-0.041h-0.041h-0.041h-0.041
			h-0.041h-0.041H40.43h-0.039H40.35h-0.041h-0.041h-0.041h-0.043h-0.041h-0.041h-0.041H40.02h-0.04h-0.042h-0.041h-0.041h-0.042
			h-0.041h-0.041h-0.041H39.65h-0.04h-0.041h-0.041h-0.041h-0.041h-0.041h-0.041h-0.041h-0.041h-0.041H39.2h-0.042h-0.041h-0.041
			h-0.041h-0.041h-0.042h-0.041H38.87h-0.04h-0.04h-0.042h-0.041h-0.042h-0.041h-0.041h-0.042H38.5h-0.041H38.42h-0.041h-0.041
			h-0.041h-0.041h-0.041h-0.041h-0.041H38.09h-0.041H38.01h-0.041h-0.041h-0.041h-0.041h-0.041h-0.043h-0.041H37.68h-0.039h-0.043
			h-0.041h-0.041h-0.041h-0.041h-0.041h-0.041h-0.041H37.27h-0.041h-0.04h-0.041h-0.041h-0.041h-0.042h-0.041h-0.041H36.9h-0.04
			h-0.042h-0.041h-0.041h-0.042h-0.041h-0.042H36.57h-0.041H36.49h-0.041h-0.041h-0.041h-0.041h-0.041h-0.041h-0.042h-0.041H36.12
			h-0.04h-0.041h-0.042h-0.041h-0.041h-0.041h-0.041h-0.042H35.75h-0.041H35.67h-0.041h-0.041h-0.041h-0.041h-0.041h-0.041h-0.041
			H35.34h-0.039H35.26h-0.041h-0.043h-0.041h-0.041h-0.041h-0.041h-0.041H34.93h-0.039h-0.043H34.76v-4.416
			c0-0.297,0.03-0.587,0.088-0.867c0.014-0.06,0.026-0.12,0.043-0.179c0.013-0.05,0.025-0.101,0.041-0.15
			c0.013-0.044,0.026-0.089,0.041-0.132c0.014-0.04,0.027-0.08,0.041-0.12c0.014-0.036,0.027-0.073,0.041-0.109
			c0.014-0.034,0.027-0.067,0.041-0.101c0.015-0.031,0.027-0.063,0.041-0.094c0.014-0.03,0.027-0.059,0.041-0.088
			c0.015-0.028,0.027-0.055,0.043-0.083c0.013-0.026,0.026-0.053,0.041-0.079c0.014-0.025,0.026-0.05,0.041-0.075
			c0.014-0.024,0.026-0.048,0.041-0.072c0.014-0.022,0.026-0.045,0.041-0.068c0.014-0.022,0.027-0.044,0.041-0.066
			c0.014-0.021,0.027-0.042,0.041-0.063c0.014-0.02,0.027-0.041,0.041-0.061c0.015-0.02,0.027-0.04,0.043-0.059
			c0.013-0.019,0.026-0.038,0.041-0.057c0.014-0.019,0.026-0.037,0.041-0.054c0.012-0.018,0.026-0.036,0.041-0.054
			c0.014-0.017,0.026-0.034,0.041-0.051c0.014-0.017,0.026-0.033,0.041-0.049c0.014-0.017,0.026-0.033,0.041-0.049
			c0.014-0.016,0.026-0.031,0.041-0.046c0.014-0.016,0.027-0.031,0.041-0.046c0.014-0.015,0.027-0.029,0.041-0.044
			c0.014-0.014,0.027-0.028,0.041-0.043c0.014-0.014,0.027-0.028,0.041-0.042s0.027-0.027,0.043-0.041
			c0.012-0.014,0.026-0.027,0.041-0.04c0.014-0.013,0.027-0.025,0.041-0.038s0.027-0.025,0.041-0.038
			c0.014-0.012,0.027-0.024,0.041-0.036c0.014-0.012,0.028-0.024,0.043-0.036c0.014-0.012,0.026-0.023,0.041-0.035
			c0.014-0.012,0.026-0.022,0.04-0.034c0.013-0.011,0.027-0.022,0.041-0.033l0.041-0.032l0.041-0.032
			c0.015-0.01,0.027-0.02,0.041-0.03c0.015-0.01,0.028-0.021,0.041-0.03l0.041-0.029c0.015-0.01,0.027-0.02,0.041-0.029l0.042-0.028
			l0.041-0.026c0.014-0.009,0.028-0.018,0.042-0.027l0.041-0.026c0.015-0.008,0.027-0.017,0.041-0.025
			c0.015-0.008,0.028-0.016,0.042-0.024s0.027-0.017,0.041-0.024c0.014-0.007,0.027-0.015,0.041-0.023
			c0.014-0.008,0.027-0.015,0.041-0.022c0.014-0.007,0.027-0.015,0.041-0.022s0.027-0.015,0.042-0.021
			c0.015-0.007,0.026-0.014,0.041-0.021s0.026-0.014,0.041-0.021l0.041-0.02c0.015-0.007,0.026-0.013,0.041-0.02
			c0.015-0.006,0.026-0.013,0.041-0.019c0.015-0.006,0.026-0.012,0.042-0.018c0.014-0.006,0.027-0.012,0.041-0.018
			c0.014-0.006,0.027-0.011,0.041-0.017c0.014-0.006,0.027-0.012,0.041-0.017l0.042-0.016l0.041-0.016
			c0.015-0.005,0.026-0.01,0.041-0.015c0.013-0.004,0.028-0.01,0.041-0.014c0.014-0.005,0.028-0.01,0.042-0.015
			c0.014-0.005,0.027-0.009,0.041-0.014l0.042-0.013c0.013-0.004,0.026-0.009,0.041-0.013c0.014-0.004,0.026-0.008,0.042-0.012
			c0.013-0.004,0.027-0.008,0.041-0.012c0.014-0.004,0.027-0.008,0.041-0.012c0.014-0.003,0.027-0.007,0.042-0.011l0.041-0.011
			c0.013-0.003,0.026-0.006,0.041-0.01c0.014-0.003,0.026-0.007,0.041-0.01c0.014-0.002,0.026-0.006,0.041-0.009l0.042-0.009
			l0.041-0.008c0.014-0.002,0.027-0.005,0.041-0.008c0.013-0.002,0.027-0.005,0.041-0.008c0.014-0.002,0.027-0.004,0.041-0.006
			l0.041-0.007c0.014-0.002,0.027-0.005,0.041-0.006c0.014-0.002,0.027-0.004,0.041-0.006c0.015-0.002,0.027-0.003,0.043-0.005
			c0.013-0.002,0.027-0.004,0.041-0.005l0.041-0.004c0.014-0.001,0.027-0.003,0.041-0.004c0.015-0.001,0.027-0.002,0.041-0.004
			l0.041-0.004l0.043-0.002c0.014-0.001,0.027-0.002,0.041-0.003c0.014,0,0.027-0.002,0.041-0.002
			c0.014-0.001,0.027-0.001,0.041-0.001l0.041-0.001c0.015,0,0.027-0.001,0.041-0.002c0.015,0,0.027,0,0.041,0
			c0.015,0,0.027,0,0.043,0h0.01h0.031h0.041h0.041h0.041h0.041h0.041h0.041h0.041h0.041h0.041h0.041h0.041h0.041h0.041h0.041h0.041
			h0.041h0.041h0.041h0.041h0.043h0.041h0.041h0.041h0.041h0.043h0.041h0.041h0.041h0.041h0.041h0.041h0.041h0.041h0.041h0.042
			h0.041h0.041h0.041h0.041h0.042h0.041h0.041h0.041h0.041h0.041h0.041h0.042h0.041h0.041h0.041h0.042h0.041h0.042h0.041h0.042
			h0.041h0.041h0.041h0.041h0.041h0.013h0.041h0.041h0.041h0.041h0.042h0.041h0.041h0.042h0.041h0.042h0.041h0.041h0.041h0.041
			h0.041H42.2h0.041h0.042h0.041h0.041h0.042h0.041h0.041h0.041h0.041h0.042h0.041h0.041h0.041h0.041h0.042h0.041h0.041h0.041h0.041
			h0.041h0.042h0.041h0.033h0.041h0.041h0.041h0.041h0.041h0.041h0.041h0.043h0.041h0.041h0.041h0.041h0.043h0.041h0.041H43.8h0.041
			h0.041h0.041h0.041h0.041h0.041h0.041h0.043h0.041h0.041h0.041h0.041h0.041h0.041h0.041h0.043h0.041h0.041h0.04h0.041h0.041h0.041
			h0.041h0.042h0.041h0.041h0.041h0.042h0.041h0.041h0.041h0.041h0.041H45.2h0.041h0.018C45.259,15.487,45.259,36.747,45.259,36.747
			z M36.86,28.76v-0.004h0.042h0.041h0.041h0.041h0.042h0.041h0.042h0.041h0.041h0.042h0.041h0.041h0.042h0.041h0.041h0.042h0.041
			h0.04h0.037h0.041h0.041h0.041h0.041h0.041h0.041h0.041h0.043h0.041h0.041h0.041h0.041h0.041h0.041h0.041h0.041h0.041h0.043h0.041
			h0.041h0.041h0.041h0.041h0.041h0.041h0.041h0.041h0.043h0.041h0.041h0.041h0.04H39h0.041h0.041h0.041h0.041h0.042h0.041h0.041
			h0.034h0.007c0.013,0.002,0.026,0.002,0.041,0.002c0.013,0.002,0.027,0.002,0.041,0.004c0.015,0,0.027,0.002,0.041,0.004
			c0.015,0,0.027,0.002,0.041,0.002c0.015,0.003,0.028,0.005,0.041,0.006c0.015,0.002,0.029,0.004,0.041,0.006
			c0.009,0.001,0.017,0.003,0.024,0.004l0.017,0.004c0.015,0.003,0.026,0.006,0.042,0.01c0.014,0.004,0.027,0.008,0.041,0.012
			c0.014,0.006,0.027,0.01,0.041,0.015c0.014,0.005,0.027,0.01,0.041,0.017c0.014,0.006,0.027,0.012,0.041,0.018
			c0.014,0.006,0.027,0.013,0.042,0.02c0.015,0.006,0.026,0.014,0.041,0.021c0.013,0.008,0.028,0.016,0.041,0.023
			c0.015,0.008,0.028,0.019,0.041,0.027c0.015,0.009,0.028,0.02,0.041,0.029c0.015,0.01,0.028,0.021,0.042,0.031
			c0.014,0.013,0.027,0.024,0.041,0.037c0.014,0.012,0.027,0.025,0.042,0.039c0.015,0.014,0.028,0.029,0.041,0.045
			c0.015,0.016,0.028,0.032,0.042,0.049c0.004,0.021,0.018,0.039,0.031,0.06c0.015,0.021,0.027,0.043,0.041,0.065
			c0.015,0.024,0.027,0.051,0.041,0.076c0.015,0.032,0.029,0.064,0.041,0.098c0.017,0.045,0.029,0.091,0.041,0.139
			c0.019,0.083,0.029,0.17,0.029,0.262c0,0.09-0.011,0.178-0.029,0.262c-0.012,0.048-0.024,0.094-0.041,0.139
			c-0.012,0.033-0.026,0.064-0.041,0.098c-0.014,0.026-0.026,0.053-0.041,0.077c-0.014,0.022-0.026,0.044-0.041,0.065
			c-0.014,0.019-0.027,0.037-0.041,0.056c-0.014,0.017-0.026,0.034-0.043,0.05c-0.012,0.016-0.026,0.029-0.041,0.045
			c-0.012,0.014-0.026,0.026-0.041,0.039c-0.014,0.012-0.027,0.023-0.041,0.036c-0.014,0.011-0.027,0.022-0.043,0.032
			c-0.012,0.01-0.026,0.02-0.041,0.029c-0.012,0.009-0.026,0.018-0.041,0.025c-0.012,0.01-0.026,0.018-0.041,0.024
			c-0.014,0.008-0.026,0.015-0.041,0.022c-0.014,0.006-0.026,0.012-0.041,0.02c-0.014,0.006-0.027,0.012-0.041,0.018
			c-0.014,0.006-0.027,0.012-0.041,0.016c-0.014,0.005-0.027,0.011-0.041,0.015c-0.014,0.004-0.027,0.008-0.041,0.012
			c-0.014,0.003-0.028,0.007-0.042,0.011l-0.017,0.004c-0.008,0-0.017,0.002-0.024,0.004c-0.013,0.003-0.026,0.005-0.041,0.007
			c-0.013,0.001-0.027,0.003-0.041,0.005c-0.015,0.002-0.027,0.003-0.041,0.004c-0.015,0.001-0.027,0.002-0.041,0.003
			C39.386,31,39.373,31,39.36,31.002c-0.015,0-0.028,0.001-0.041,0.002h-0.022h-0.019h-0.041H39.2h-0.042h-0.041h-0.041h-0.041
			h-0.041h-0.042h-0.041H38.87h-0.04h-0.04h-0.042h-0.041h-0.041h-0.041h-0.041h-0.042h-0.04h-0.041H38.42h-0.041h-0.041h-0.041
			h-0.041h-0.041h-0.041h-0.043H38.09h-0.041H38.01h-0.041h-0.041h-0.041h-0.041h-0.041h-0.041h-0.041H37.68h-0.039H37.6h-0.041
			h-0.041h-0.043h-0.041h-0.041h-0.041h-0.041H37.27h-0.04h-0.041h-0.041h-0.042h-0.041h-0.042h-0.041h-0.041H36.9h-0.04h-0.02
			V28.76H36.86z M36.84,27.495v-0.002v-2.071h0.021h0.041h0.041h0.041h0.041h0.042h0.041h0.041h0.041h0.041h0.042h0.041h0.042h0.041
			h0.041h0.04h0.043h0.041h0.041h0.037h0.041h0.041h0.041h0.041h0.043h0.041h0.041h0.041h0.041h0.041h0.043h0.041h0.041h0.041h0.041
			H38.3h0.043h0.041h0.041h0.041h0.041h0.041h0.043h0.041h0.041h0.041h0.041h0.043h0.041h0.041h0.041h0.041h0.043h0.041h0.041h0.016
			h0.025c0.014,0,0.026,0.001,0.041,0.002c0.014,0.001,0.027,0.002,0.041,0.003c0.014,0.001,0.027,0.002,0.041,0.004
			c0.016,0.001,0.028,0.003,0.041,0.004c0.014,0.001,0.023,0.003,0.031,0.004l0.01,0.002c0.014,0.002,0.028,0.005,0.041,0.009
			c0.014,0.002,0.027,0.006,0.041,0.01c0.014,0.003,0.027,0.007,0.042,0.011c0.015,0.004,0.027,0.009,0.041,0.014
			c0.013,0.005,0.027,0.01,0.041,0.015c0.015,0.005,0.028,0.012,0.041,0.018c0.015,0.006,0.028,0.012,0.041,0.02
			c0.015,0.006,0.028,0.014,0.042,0.021c0.014,0.008,0.027,0.016,0.041,0.024c0.014,0.008,0.027,0.017,0.041,0.027
			c0.014,0.009,0.028,0.02,0.041,0.03c0.016,0.01,0.028,0.021,0.042,0.033c0.015,0.012,0.028,0.024,0.041,0.037
			c0.015,0.013,0.027,0.026,0.041,0.041c0.015,0.015,0.028,0.03,0.041,0.046c0.015,0.018,0.028,0.035,0.041,0.053
			c0.015,0.02,0.028,0.041,0.041,0.062c0.015,0.024,0.029,0.049,0.042,0.074c0.016,0.031,0.027,0.062,0.041,0.095
			c0.018,0.044,0.03,0.091,0.041,0.139c0.018,0.075,0.025,0.155,0.025,0.239c0,0.083-0.01,0.164-0.025,0.239
			c-0.011,0.048-0.023,0.095-0.041,0.14c-0.012,0.032-0.025,0.064-0.041,0.094c-0.013,0.025-0.027,0.05-0.042,0.074
			c-0.013,0.021-0.026,0.042-0.041,0.062c-0.013,0.018-0.026,0.036-0.041,0.053c-0.013,0.016-0.026,0.032-0.041,0.046
			c-0.014,0.014-0.026,0.028-0.041,0.041c-0.013,0.013-0.026,0.024-0.041,0.037c-0.014,0.012-0.026,0.022-0.042,0.033
			c-0.013,0.01-0.027,0.021-0.041,0.03c-0.014,0.009-0.027,0.018-0.041,0.026c-0.014,0.008-0.027,0.017-0.041,0.024
			c-0.014,0.007-0.027,0.015-0.042,0.021c-0.013,0.006-0.026,0.014-0.041,0.02c-0.013,0.006-0.026,0.011-0.041,0.017
			c-0.013,0.005-0.026,0.011-0.041,0.016c-0.014,0.004-0.026,0.009-0.041,0.013c-0.014,0.004-0.028,0.008-0.042,0.012
			c-0.014,0.004-0.027,0.007-0.041,0.01c-0.013,0.003-0.027,0.005-0.041,0.008l-0.01,0.002c-0.008,0.001-0.02,0.002-0.031,0.004
			c-0.012,0.001-0.025,0.003-0.041,0.004c-0.014,0.001-0.027,0.003-0.041,0.004c-0.014,0.001-0.027,0.002-0.041,0.003
			c-0.015,0.001-0.027,0.002-0.041,0.002c-0.015,0-0.029,0.001-0.041,0.001H39.08h-0.034h-0.041h-0.043h-0.041H38.88h-0.04h-0.05
			h-0.042h-0.041h-0.041h-0.042h-0.041h-0.042H38.5h-0.041h-0.041h-0.041h-0.041h-0.043h-0.041h-0.041H38.17h-0.041h-0.041h-0.043
			H38.01h-0.041h-0.041h-0.041h-0.041h-0.043h-0.041h-0.041H37.68h-0.039H37.6h-0.041h-0.041h-0.043h-0.041h-0.041h-0.041h-0.041
			H37.27h-0.04h-0.041h-0.041h-0.041h-0.041h-0.042h-0.041h-0.041h-0.041H36.86H36.84z"/>
	</g>
</g>
<g>
</g>
<g>
</g>
<g>
</g>
<g>
</g>
<g>
</g>
<g>
</g>
<g>
</g>
<g>
</g>
<g>
</g>
<g>
</g>
<g>
</g>
<g>
</g>
<g>
</g>
<g>
</g>
<g>
</g>
</svg>
